<svg xmlns="http://www.w3.org/2000/svg" width="385.466" height="97.18"><pattern x="-194.35" y="353.429" width="69" height="69" patternUnits="userSpaceOnUse" viewBox="2.125 -70.896 69 69" overflow="visible"><polygon points="71.125,-1.896 2.125,-1.896 2.125,-70.896 71.125,-70.896" fill="none"/><polygon fill="#F7BC60" points="71.125,-1.896 2.125,-1.896 2.125,-70.896 71.125,-70.896"/><g fill="#fff"><path d="M61.772-71.653c.018.072.007.127-.026.19l-.165.128c-.05.062-.099.276-.079.362-.169.058-.01.227-.015.35l-.045.161c-.01.119.017.266.068.37.097.198.268.413.435.544.19.148.365.572.608.631.177.042.384-.104.543-.143.18-.043.397.01.571-.053.222-.079.127-.337.288-.45.104-.074.287-.01.406-.051.2-.069.339-.263.376-.46l.039-.221c.038-.103.111-.16.09-.293l-.065-.187.001-.337c-.003-.2.017-.379-.078-.55-.38-.688-1.236-.929-1.975-.789-.18.034-.287.126-.442.207-.17.088-.139.166-.318.224-.081.026-.216.124-.215.224l.012.169-.03-.025"/><path d="M54.105-71.653c.018.072.007.127-.026.19l-.165.128c-.05.062-.099.276-.079.362-.169.058-.01.227-.015.35l-.045.161c-.01.119.017.266.068.37.097.198.268.413.435.544.19.148.365.572.608.631.177.042.384-.104.543-.143.18-.043.397.01.571-.053.222-.079.127-.337.288-.45.104-.074.287-.01.406-.051.2-.069.339-.263.376-.46l.039-.221c.038-.103.111-.16.09-.293l-.064-.187v-.337c-.003-.2.017-.379-.078-.55-.38-.688-1.236-.929-1.975-.789-.18.034-.287.126-.442.207-.17.088-.139.166-.318.224-.081.026-.216.124-.215.224l.012.169-.03-.025"/><path d="M46.439-71.653c.018.072.007.127-.026.19l-.165.128c-.05.062-.099.276-.079.362-.169.058-.01.227-.015.35l-.045.161c-.01.119.017.266.068.37.097.198.268.413.435.544.19.148.365.572.608.631.177.042.384-.104.543-.143.18-.043.397.01.571-.053.222-.079.127-.337.288-.45.104-.074.287-.01.406-.051.2-.069.339-.263.376-.46l.039-.221c.038-.103.111-.16.09-.293l-.064-.187v-.337c-.003-.2.017-.379-.078-.55-.38-.688-1.236-.929-1.975-.789-.18.034-.287.126-.442.207-.17.088-.139.166-.318.224-.081.026-.216.124-.215.224l.012.169-.03-.025"/><path d="M38.772-71.653c.018.072.007.127-.026.19l-.165.128c-.05.062-.099.276-.079.362-.169.058-.01.227-.015.35l-.045.161c-.01.119.017.266.068.37.097.198.268.413.435.544.19.148.365.572.608.631.177.042.384-.104.543-.143.18-.043.397.01.571-.053.222-.079.127-.337.288-.45.104-.074.287-.01.406-.051.2-.069.339-.263.376-.46l.039-.221c.038-.103.111-.16.09-.293l-.064-.187v-.337c-.003-.2.017-.379-.078-.55-.38-.688-1.236-.929-1.975-.789-.18.034-.287.126-.442.207-.17.088-.139.166-.318.224-.081.026-.216.124-.215.224l.012.169-.03-.025"/><path d="M31.105-71.653c.017.072.007.127-.026.19l-.165.128c-.05.062-.099.276-.079.362-.169.058-.01.227-.015.35l-.045.161c-.01.119.017.266.068.37.097.198.268.413.435.544.19.148.365.572.608.631.177.042.384-.104.543-.143.18-.043.397.01.571-.053.222-.079.127-.337.288-.45.104-.074.287-.01.406-.051.2-.069.339-.263.376-.46l.039-.221c.038-.103.111-.16.09-.293l-.064-.187v-.337c-.003-.2.017-.379-.078-.55-.38-.688-1.236-.929-1.975-.789-.18.034-.287.126-.442.207-.17.088-.139.166-.318.224-.081.026-.216.124-.215.224l.012.169-.03-.025"/><path d="M23.439-71.653c.017.072.007.127-.026.19l-.165.128c-.05.062-.099.276-.079.362-.169.058-.01.227-.015.35l-.045.161c-.01.119.017.266.068.37.097.198.268.413.435.544.19.148.365.572.608.631.177.042.384-.104.543-.143.18-.043.397.01.571-.053.222-.079.127-.337.288-.45.104-.074.287-.01.406-.051.2-.069.339-.263.376-.46l.039-.221c.038-.103.111-.16.09-.293l-.065-.187v-.337c-.003-.2.017-.379-.078-.55-.38-.688-1.236-.929-1.975-.789-.18.034-.287.126-.442.207-.17.088-.139.166-.318.224-.081.026-.216.124-.215.224l.012.169-.03-.025"/><path d="M15.773-71.653c.017.072.007.127-.026.19l-.165.128c-.05.062-.099.276-.079.362-.169.058-.01.227-.015.35l-.045.161c-.01.119.017.266.068.37.097.198.268.413.435.544.19.148.365.572.608.631.177.042.384-.104.543-.143.18-.043.397.01.571-.053.222-.079.127-.337.288-.45.104-.074.287-.01.406-.051.2-.069.339-.263.376-.46l.039-.221c.038-.103.111-.16.09-.293l-.065-.187v-.337c-.003-.2.017-.379-.078-.55-.38-.688-1.236-.929-1.975-.789-.18.034-.287.126-.442.207-.17.088-.139.166-.318.224-.081.026-.216.124-.215.224l.012.169-.03-.025"/><path d="M8.105-71.653c.018.072.007.127-.026.19l-.165.128c-.05.062-.099.276-.079.362-.169.058-.01.227-.015.35l-.045.161c-.01.119.017.266.068.37.097.198.268.413.435.544.19.148.365.572.608.631.177.042.384-.104.543-.143.18-.043.397.01.571-.053.222-.079.127-.337.288-.45.105-.074.287-.01.406-.051.2-.069.339-.263.376-.46l.039-.221c.038-.103.111-.16.09-.293l-.064-.187v-.337c-.003-.2.017-.379-.078-.55-.38-.688-1.236-.929-1.975-.789-.18.034-.287.126-.442.207-.17.088-.139.166-.318.224-.081.026-.216.124-.215.224l.012.169-.03-.025"/><path d="M.439-71.653c.018.072.008.127-.026.19l-.165.128c-.051.062-.099.276-.079.362-.169.058-.01.227-.015.35l-.045.161c-.01.119.017.266.068.37.097.198.268.413.435.544.19.148.365.572.608.631.177.042.384-.104.543-.143.18-.043.397.01.571-.053.222-.079.127-.337.288-.45.104-.074.287-.01.406-.051.2-.07.339-.263.376-.46l.039-.221c.038-.103.111-.16.09-.293l-.064-.187v-.337c-.003-.2.017-.379-.078-.55-.38-.688-1.236-.929-1.975-.789-.18.034-.287.126-.442.207-.17.088-.139.166-.318.224-.081.026-.215.124-.215.224l.012.169-.03-.025"/></g><path fill="#fff" d="M69.439-71.653c.017.072.008.127-.026.19l-.165.128c-.051.062-.099.276-.079.362-.169.058-.01.227-.015.35l-.045.161c-.01.119.017.266.068.37.097.198.268.413.435.544.19.148.365.572.608.631.177.042.384-.104.543-.143.18-.043.397.01.571-.053.222-.079.127-.337.288-.45.104-.074.287-.01.406-.051.2-.07.339-.263.376-.46l.039-.221c.038-.103.111-.16.09-.293l-.064-.187.001-.337c-.003-.2.017-.379-.078-.55-.38-.688-1.236-.929-1.975-.789-.18.034-.287.126-.442.207-.17.088-.139.166-.318.224-.081.026-.215.124-.215.224l.012.169-.03-.025"/><path fill="#fff" d="M.495-71.653c.018.072.008.127-.026.19l-.165.128c-.051.062-.099.276-.079.362-.169.058-.01.227-.015.35l-.045.161c-.01.119.017.266.068.37.097.198.268.413.435.544.19.148.365.572.608.631.177.042.384-.104.543-.143.18-.043.397.01.571-.053.222-.079.127-.337.288-.45.104-.074.287-.01.406-.051.2-.07.339-.263.376-.46l.039-.221c.038-.103.111-.16.09-.293l-.064-.187v-.337c-.003-.2.017-.379-.078-.55-.38-.688-1.236-.929-1.975-.789-.18.034-.287.126-.442.207-.17.088-.139.166-.318.224-.081.026-.215.124-.215.224l.013.17-.03-.025"/><g fill="#fff"><path d="M69.439-64.001c.017.072.007.127-.026.19l-.165.128c-.05.062-.099.276-.079.362-.169.058-.01.227-.015.35l-.045.161c-.01.119.017.266.068.37.097.198.268.413.435.544.19.148.365.572.608.631.177.042.384-.104.543-.143.18-.043.397.01.571-.053.222-.079.127-.337.288-.45.104-.074.287-.01.406-.051.2-.069.339-.263.376-.46l.039-.221c.039-.102.111-.16.09-.293l-.064-.187.001-.337c-.003-.2.017-.379-.078-.55-.38-.688-1.236-.929-1.975-.789-.18.034-.287.126-.442.207-.17.088-.139.166-.318.224-.081.026-.216.124-.215.224l.012.169-.03-.025"/><path d="M61.778-64.001c.018.072.007.127-.026.19l-.165.128c-.05.062-.099.276-.079.362-.169.058-.009.227-.015.35l-.045.161c-.01.119.017.266.068.37.097.198.268.413.435.544.19.148.365.572.608.631.177.042.384-.104.543-.143.18-.043.397.01.571-.053.222-.079.127-.337.288-.45.104-.074.287-.01.406-.051.2-.069.339-.263.376-.46l.039-.221c.039-.102.111-.16.09-.293l-.064-.187v-.337c-.003-.2.017-.379-.078-.55-.38-.688-1.236-.929-1.975-.789-.18.034-.287.126-.442.207-.17.088-.139.166-.318.224-.081.026-.216.124-.215.224l.012.169-.03-.025"/><path d="M54.118-64.001c.018.072.007.127-.026.19l-.165.128c-.05.062-.099.276-.079.362-.169.058-.009.227-.015.35l-.045.161c-.01.119.017.266.068.37.097.198.268.413.435.544.19.148.365.572.608.631.177.042.384-.104.543-.143.18-.043.397.01.571-.053.222-.079.127-.337.288-.45.104-.074.287-.01.406-.051.2-.069.339-.263.376-.46l.039-.221c.038-.102.111-.16.09-.293l-.064-.187v-.337c-.003-.2.017-.379-.078-.55-.38-.688-1.236-.929-1.975-.789-.18.034-.287.126-.442.207-.17.088-.139.166-.318.224-.081.026-.216.124-.215.224l.012.169-.03-.025"/><path d="M46.458-64.001c.018.072.007.127-.026.19l-.165.128c-.05.062-.099.276-.079.362-.169.058-.009.227-.015.35l-.045.161c-.01.119.017.266.068.37.097.198.268.413.435.544.19.148.365.572.608.631.177.042.384-.104.543-.143.18-.043.397.01.571-.053.222-.079.127-.337.288-.45.104-.074.287-.01.406-.051.2-.069.339-.263.376-.46l.039-.221c.039-.102.111-.16.09-.293l-.064-.187v-.337c-.003-.2.017-.379-.078-.55-.38-.688-1.236-.929-1.975-.789-.18.034-.287.126-.442.207-.17.088-.139.166-.318.224-.081.026-.216.124-.215.224l.012.169-.03-.025"/><path d="M38.797-64.001c.017.072.007.127-.026.19l-.165.128c-.05.062-.099.276-.079.362-.169.058-.009.227-.015.35l-.045.161c-.01.119.017.266.068.37.097.198.268.413.435.544.19.148.365.572.608.631.177.042.384-.104.543-.143.18-.043.397.01.571-.053.222-.079.127-.337.288-.45.104-.074.287-.01.406-.051.2-.069.339-.263.376-.46l.039-.221c.039-.102.111-.16.09-.293l-.065-.187v-.337c-.003-.2.017-.379-.078-.55-.38-.688-1.236-.929-1.975-.789-.18.034-.287.126-.442.207-.17.088-.139.166-.318.224-.081.026-.216.124-.215.224l.012.169-.03-.025"/><path d="M31.137-64.001c.018.072.007.127-.026.19l-.165.128c-.05.062-.099.276-.079.362-.169.058-.009.227-.015.35l-.045.161c-.01.119.017.266.068.37.097.198.268.413.435.544.19.148.365.572.608.631.177.042.384-.104.543-.143.18-.043.397.01.571-.053.222-.079.127-.337.288-.45.104-.074.287-.01.406-.051.2-.069.339-.263.376-.46l.039-.221c.039-.102.111-.16.09-.293l-.064-.187v-.337c-.003-.2.017-.379-.078-.55-.38-.688-1.236-.929-1.975-.789-.18.034-.287.126-.442.207-.17.088-.139.166-.318.224-.081.026-.216.124-.215.224l.012.169-.03-.025"/><path d="M23.477-64.001c.017.072.007.127-.026.19l-.165.128c-.05.062-.099.276-.079.362-.169.058-.009.227-.015.35l-.045.161c-.01.119.017.266.068.37.097.198.268.413.435.544.19.148.365.572.608.631.177.042.384-.104.543-.143.18-.043.397.01.571-.053.222-.079.127-.337.288-.45.104-.074.287-.01.406-.051.2-.069.339-.263.376-.46l.039-.221c.038-.102.111-.16.09-.293l-.065-.187v-.337c-.003-.2.017-.379-.078-.55-.38-.688-1.236-.929-1.975-.789-.18.034-.287.126-.442.207-.17.088-.139.166-.318.224-.081.026-.216.124-.215.224l.012.169-.03-.025"/><path d="M15.816-64.001c.018.072.007.127-.026.19l-.165.128c-.05.062-.099.276-.079.362-.169.058-.009.227-.015.35l-.045.161c-.01.119.017.266.068.37.097.198.268.413.435.544.19.148.365.572.608.631.177.042.384-.104.543-.143.18-.043.397.01.571-.053.222-.079.128-.337.288-.45.104-.074.287-.01.406-.051.2-.069.339-.263.376-.46l.039-.221c.039-.102.111-.16.09-.293l-.064-.187v-.337c-.003-.2.017-.379-.078-.55-.38-.688-1.236-.929-1.975-.789-.18.034-.287.126-.442.207-.17.088-.139.166-.318.224-.081.026-.216.124-.215.224l.012.169-.03-.025"/><path d="M8.156-64.001c.018.072.007.127-.026.19l-.165.128c-.05.062-.099.276-.079.362-.169.058-.009.227-.015.35l-.045.161c-.01.119.017.266.068.37.097.198.268.413.435.544.19.148.365.572.608.631.177.042.384-.104.543-.143.18-.043.397.01.571-.053.222-.079.127-.337.288-.45.104-.074.287-.01.406-.051.2-.069.339-.263.376-.46l.039-.221c.038-.102.111-.16.09-.293l-.064-.187v-.337c-.003-.2.017-.379-.078-.55-.38-.688-1.236-.929-1.975-.789-.18.034-.287.126-.442.207-.17.088-.139.166-.318.224-.081.026-.216.124-.215.224l.012.169-.03-.025"/><path d="M.495-64.001c.018.072.007.127-.026.19l-.165.128c-.05.062-.099.276-.079.362-.169.058-.01.227-.015.35l-.045.161c-.01.119.017.266.068.37.097.198.268.413.435.544.19.148.365.572.608.631.177.042.384-.104.543-.143.181-.042.398.011.572-.052.222-.079.127-.337.288-.45.104-.074.287-.01.406-.051.2-.069.339-.263.376-.46l.039-.221c.039-.102.111-.16.09-.293l-.064-.187v-.337c-.003-.2.017-.379-.078-.55-.38-.688-1.236-.929-1.975-.789-.18.034-.287.126-.442.207-.17.088-.139.166-.318.224-.081.026-.216.124-.215.224l.012.169-.03-.025"/><path d="M69.439-56.348c.017.072.007.127-.026.19l-.165.128c-.05.062-.099.276-.079.362-.169.058-.01.227-.015.35l-.045.161c-.01.119.017.266.068.37.097.198.268.413.435.544.19.148.365.572.608.631.177.042.384-.104.543-.143.18-.043.397.01.571-.053.222-.079.127-.337.288-.45.104-.074.287-.01.406-.051.2-.069.339-.263.376-.46l.039-.221c.039-.103.111-.16.09-.293l-.064-.187.001-.337c-.003-.2.017-.379-.078-.55-.38-.688-1.236-.929-1.975-.789-.18.034-.287.126-.442.207-.17.088-.139.166-.318.224-.081.026-.216.124-.215.224l.012.169-.03-.025"/><path d="M61.778-56.348c.018.072.007.127-.026.19l-.165.128c-.05.062-.099.276-.079.362-.169.058-.009.227-.015.35l-.045.161c-.01.119.017.266.068.37.097.198.268.413.435.544.19.148.365.572.608.631.177.042.384-.104.543-.143.18-.043.397.01.571-.053.222-.079.127-.337.288-.45.104-.074.287-.01.406-.051.2-.069.339-.263.376-.46l.039-.221c.039-.103.111-.16.09-.293l-.064-.187v-.337c-.003-.2.017-.379-.078-.55-.38-.688-1.236-.929-1.975-.789-.18.034-.287.126-.442.207-.17.088-.139.166-.318.224-.081.026-.216.124-.215.224l.012.169-.03-.025"/><path d="M54.118-56.348c.018.072.007.127-.026.19l-.165.128c-.05.062-.099.276-.079.362-.169.058-.009.227-.015.35l-.045.161c-.01.119.017.266.068.37.097.198.268.413.435.544.19.148.365.572.608.631.177.042.384-.104.543-.143.18-.043.397.01.571-.053.222-.079.127-.337.288-.45.104-.074.287-.01.406-.051.2-.069.339-.263.376-.46l.039-.221c.038-.103.111-.16.09-.293l-.064-.187v-.337c-.003-.2.017-.379-.078-.55-.38-.688-1.236-.929-1.975-.789-.18.034-.287.126-.442.207-.17.088-.139.166-.318.224-.081.026-.216.124-.215.224l.012.169-.03-.025"/><path d="M46.458-56.348c.018.072.007.127-.026.19l-.165.128c-.05.062-.099.276-.079.362-.169.058-.009.227-.015.35l-.045.161c-.01.119.017.266.068.37.097.198.268.413.435.544.19.148.365.572.608.631.177.042.384-.104.543-.143.18-.043.397.01.571-.053.222-.079.127-.337.288-.45.104-.074.287-.01.406-.051.2-.069.339-.263.376-.46l.039-.221c.039-.103.111-.16.09-.293l-.064-.187v-.337c-.003-.2.017-.379-.078-.55-.38-.688-1.236-.929-1.975-.789-.18.034-.287.126-.442.207-.17.088-.139.166-.318.224-.081.026-.216.124-.215.224l.012.169-.03-.025"/><path d="M38.797-56.348c.017.072.007.127-.026.19l-.165.128c-.05.062-.099.276-.079.362-.169.058-.009.227-.015.35l-.045.161c-.01.119.017.266.068.37.097.198.268.413.435.544.19.148.365.572.608.631.177.042.384-.104.543-.143.18-.043.397.01.571-.053.222-.079.127-.337.288-.45.104-.074.287-.01.406-.051.2-.069.339-.263.376-.46l.039-.221c.039-.103.111-.16.09-.293l-.065-.187v-.337c-.003-.2.017-.379-.078-.55-.38-.688-1.236-.929-1.975-.789-.18.034-.287.126-.442.207-.17.088-.139.166-.318.224-.081.026-.216.124-.215.224l.012.169-.03-.025"/><path d="M31.137-56.348c.018.072.007.127-.026.19l-.165.128c-.05.062-.099.276-.079.362-.169.058-.009.227-.015.35l-.045.161c-.01.119.017.266.068.37.097.198.268.413.435.544.19.148.365.572.608.631.177.042.384-.104.543-.143.18-.043.397.01.571-.053.222-.079.127-.337.288-.45.104-.074.287-.01.406-.051.2-.069.339-.263.376-.46l.039-.221c.039-.103.111-.16.09-.293l-.064-.187v-.337c-.003-.2.017-.379-.078-.55-.38-.688-1.236-.929-1.975-.789-.18.034-.287.126-.442.207-.17.088-.139.166-.318.224-.081.026-.216.124-.215.224l.012.169-.03-.025"/><path d="M23.477-56.348c.017.072.007.127-.026.19l-.165.128c-.05.062-.099.276-.079.362-.169.058-.009.227-.015.35l-.045.161c-.01.119.017.266.068.37.097.198.268.413.435.544.19.148.365.572.608.631.177.042.384-.104.543-.143.18-.043.397.01.571-.053.222-.079.127-.337.288-.45.104-.074.287-.01.406-.051.2-.069.339-.263.376-.46l.039-.221c.038-.103.111-.16.09-.293l-.065-.187v-.337c-.003-.2.017-.379-.078-.55-.38-.688-1.236-.929-1.975-.789-.18.034-.287.126-.442.207-.17.088-.139.166-.318.224-.081.026-.216.124-.215.224l.012.169-.03-.025"/><path d="M15.816-56.348c.018.072.007.127-.026.19l-.165.128c-.05.062-.099.276-.079.362-.169.058-.009.227-.015.35l-.045.161c-.01.119.017.266.068.37.097.198.268.413.435.544.19.148.365.572.608.631.177.042.384-.104.543-.143.18-.043.397.01.571-.053.222-.079.128-.337.288-.45.104-.074.287-.01.406-.051.2-.069.339-.263.376-.46l.039-.221c.039-.103.111-.16.09-.293l-.064-.187v-.337c-.003-.2.017-.379-.078-.55-.38-.688-1.236-.929-1.975-.789-.18.034-.287.126-.442.207-.17.088-.139.166-.318.224-.081.026-.216.124-.215.224l.012.169-.03-.025"/><path d="M8.156-56.348c.018.072.007.127-.026.19l-.165.128c-.05.062-.099.276-.079.362-.169.058-.009.227-.015.35l-.045.161c-.01.119.017.266.068.37.097.198.268.413.435.544.19.148.365.572.608.631.177.042.384-.104.543-.143.18-.043.397.01.571-.053.222-.079.127-.337.288-.45.104-.074.287-.01.406-.051.2-.069.339-.263.376-.46l.039-.221c.038-.103.111-.16.09-.293l-.064-.187v-.337c-.003-.2.017-.379-.078-.55-.38-.688-1.236-.929-1.975-.789-.18.034-.287.126-.442.207-.17.088-.139.166-.318.224-.081.026-.216.124-.215.224l.012.169-.03-.025"/><path d="M.495-56.348c.018.072.007.127-.026.19l-.165.128c-.05.062-.099.276-.079.362-.169.058-.01.227-.015.35l-.045.161c-.01.119.017.266.068.37.097.198.268.413.435.544.19.148.365.572.608.631.177.042.384-.104.543-.143.18-.043.397.01.571-.053.222-.079.127-.337.288-.45.104-.074.287-.01.406-.051.2-.069.339-.263.376-.46l.039-.221c.039-.103.111-.16.09-.293l-.064-.187v-.337c-.003-.2.017-.379-.078-.55-.38-.688-1.236-.929-1.975-.789-.18.034-.287.126-.442.207-.17.088-.139.166-.318.224-.081.026-.216.124-.215.224l.013.171-.03-.025"/><path d="M69.439-48.695c.017.072.007.127-.026.19l-.165.128c-.05.062-.099.276-.079.362-.169.058-.01.226-.015.35l-.045.161c-.01.119.017.266.068.37.097.198.268.413.435.544.19.148.365.572.608.631.177.042.384-.104.543-.143.18-.043.397.01.571-.053.222-.079.127-.337.288-.45.104-.074.287-.01.406-.051.2-.069.339-.263.376-.46l.039-.221c.039-.103.111-.16.09-.293l-.064-.187.001-.337c-.003-.2.017-.379-.078-.55-.38-.688-1.236-.929-1.975-.789-.18.034-.287.126-.442.207-.17.088-.139.166-.318.224-.081.026-.216.124-.215.224l.012.169-.03-.025"/><path d="M61.778-48.695c.018.072.007.127-.026.19l-.165.128c-.05.062-.099.276-.079.362-.169.058-.009.226-.015.35l-.045.161c-.01.119.017.266.068.37.097.198.268.413.435.544.19.148.365.572.608.631.177.042.384-.104.543-.143.18-.043.397.01.571-.053.222-.079.127-.337.288-.45.104-.074.287-.01.406-.051.2-.069.339-.263.376-.46l.039-.221c.039-.103.111-.16.09-.293l-.064-.187v-.337c-.003-.2.017-.379-.078-.55-.38-.688-1.236-.929-1.975-.789-.18.034-.287.126-.442.207-.17.088-.139.166-.318.224-.081.026-.216.124-.215.224l.012.169-.03-.025"/><path d="M54.118-48.695c.018.072.007.127-.026.19l-.165.128c-.05.062-.099.276-.079.362-.169.058-.009.226-.015.35l-.045.161c-.01.119.017.266.068.37.097.198.268.413.435.544.19.148.365.572.608.631.177.042.384-.104.543-.143.18-.043.397.01.571-.053.222-.079.127-.337.288-.45.104-.074.287-.01.406-.051.2-.069.339-.263.376-.46l.039-.221c.038-.103.111-.16.09-.293l-.064-.187v-.337c-.003-.2.017-.379-.078-.55-.38-.688-1.236-.929-1.975-.789-.18.034-.287.126-.442.207-.17.088-.139.166-.318.224-.081.026-.216.124-.215.224l.012.169-.03-.025"/><path d="M46.458-48.695c.018.072.007.127-.026.19l-.165.128c-.05.062-.099.276-.079.362-.169.058-.009.226-.015.35l-.045.161c-.01.119.017.266.068.37.097.198.268.413.435.544.19.148.365.572.608.631.177.042.384-.104.543-.143.18-.043.397.01.571-.053.222-.079.127-.337.288-.45.104-.074.287-.01.406-.051.2-.069.339-.263.376-.46l.039-.221c.039-.103.111-.16.09-.293l-.064-.187v-.337c-.003-.2.017-.379-.078-.55-.38-.688-1.236-.929-1.975-.789-.18.034-.287.126-.442.207-.17.088-.139.166-.318.224-.081.026-.216.124-.215.224l.012.169-.03-.025"/><path d="M38.797-48.695c.017.072.007.127-.026.19l-.165.128c-.05.062-.099.276-.079.362-.169.058-.009.226-.015.35l-.045.161c-.01.119.017.266.068.37.097.198.268.413.435.544.19.148.365.572.608.631.177.042.384-.104.543-.143.18-.043.397.01.571-.053.222-.079.127-.337.288-.45.104-.074.287-.01.406-.051.2-.069.339-.263.376-.46l.039-.221c.039-.103.111-.16.09-.293l-.065-.187v-.337c-.003-.2.017-.379-.078-.55-.38-.688-1.236-.929-1.975-.789-.18.034-.287.126-.442.207-.17.088-.139.166-.318.224-.081.026-.216.124-.215.224l.012.169-.03-.025"/><path d="M31.137-48.695c.018.072.007.127-.026.19l-.165.128c-.05.062-.099.276-.079.362-.169.058-.009.226-.015.35l-.045.161c-.01.119.017.266.068.37.097.198.268.413.435.544.19.148.365.572.608.631.177.042.384-.104.543-.143.18-.043.397.01.571-.053.222-.079.127-.337.288-.45.104-.074.287-.01.406-.051.2-.069.339-.263.376-.46l.039-.221c.039-.103.111-.16.09-.293l-.064-.187v-.337c-.003-.2.017-.379-.078-.55-.38-.688-1.236-.929-1.975-.789-.18.034-.287.126-.442.207-.17.088-.139.166-.318.224-.081.026-.216.124-.215.224l.012.169-.03-.025"/><path d="M23.477-48.695c.017.072.007.127-.026.19l-.165.128c-.05.062-.099.276-.079.362-.169.058-.009.226-.015.35l-.045.161c-.01.119.017.266.068.37.097.198.268.413.435.544.19.148.365.572.608.631.177.042.384-.104.543-.143.18-.043.397.01.571-.053.222-.079.127-.337.288-.45.104-.074.287-.01.406-.051.2-.069.339-.263.376-.46l.039-.221c.038-.103.111-.16.09-.293l-.065-.187v-.337c-.003-.2.017-.379-.078-.55-.38-.688-1.236-.929-1.975-.789-.18.034-.287.126-.442.207-.17.088-.139.166-.318.224-.081.026-.216.124-.215.224l.012.169-.03-.025"/><path d="M15.816-48.695c.018.072.007.127-.026.19l-.165.128c-.05.062-.099.276-.079.362-.169.058-.009.226-.015.35l-.045.161c-.01.119.017.266.068.37.097.198.268.413.435.544.19.148.365.572.608.631.177.042.384-.104.543-.143.18-.043.397.01.571-.053.222-.079.128-.337.288-.45.104-.074.287-.01.406-.051.2-.069.339-.263.376-.46l.039-.221c.039-.103.111-.16.09-.293l-.064-.187v-.337c-.003-.2.017-.379-.078-.55-.38-.688-1.236-.929-1.975-.789-.18.034-.287.126-.442.207-.17.088-.139.166-.318.224-.081.026-.216.124-.215.224l.012.169-.03-.025"/><path d="M8.156-48.695c.018.072.007.127-.026.19l-.165.128c-.05.062-.099.276-.079.362-.169.058-.009.226-.015.35l-.045.161c-.01.119.017.266.068.37.097.198.268.413.435.544.19.148.365.572.608.631.177.042.384-.104.543-.143.18-.043.397.01.571-.053.222-.079.127-.337.288-.45.104-.074.287-.01.406-.051.2-.069.339-.263.376-.46l.039-.221c.038-.103.111-.16.09-.293l-.064-.187v-.337c-.003-.2.017-.379-.078-.55-.38-.688-1.236-.929-1.975-.789-.18.034-.287.126-.442.207-.17.088-.139.166-.318.224-.081.026-.216.124-.215.224l.012.169-.03-.025"/><path d="M.495-48.695c.018.072.007.127-.026.19l-.165.128c-.05.062-.099.276-.079.362-.169.058-.01.226-.015.35l-.045.161c-.01.119.017.266.068.37.097.198.268.413.435.544.19.148.365.572.608.631.177.042.384-.104.543-.143.18-.043.397.01.571-.053.222-.079.127-.337.288-.45.104-.074.287-.01.406-.051.2-.069.339-.263.376-.46l.039-.221c.039-.103.111-.16.09-.293l-.064-.187v-.337c-.003-.2.017-.379-.078-.55-.38-.688-1.236-.929-1.975-.789-.18.034-.287.126-.442.207-.17.088-.139.166-.318.224-.081.026-.216.124-.215.224l.012.169-.03-.025"/><path d="M69.439-41.042c.017.072.007.127-.026.19l-.165.128c-.05.062-.099.276-.079.362-.169.058-.01.227-.015.35l-.045.161c-.01.119.017.266.068.37.097.198.268.413.435.544.19.148.365.572.608.631.177.042.384-.104.543-.143.18-.043.397.01.571-.053.222-.079.127-.337.288-.45.104-.074.287-.01.406-.051.2-.069.339-.263.376-.46l.039-.221c.039-.103.111-.16.09-.293l-.064-.187.001-.337c-.003-.2.017-.379-.078-.55-.38-.688-1.236-.929-1.975-.789-.18.034-.287.126-.442.207-.17.088-.139.166-.318.224-.081.026-.216.124-.215.224l.012.169-.03-.025"/><path d="M61.778-41.042c.018.072.007.127-.026.19l-.165.128c-.05.062-.099.276-.079.362-.169.058-.009.227-.015.35l-.045.161c-.01.119.017.266.068.37.097.198.268.413.435.544.19.148.365.572.608.631.177.042.384-.104.543-.143.18-.043.397.01.571-.053.222-.079.127-.337.288-.45.104-.074.287-.01.406-.051.2-.069.339-.263.376-.46l.039-.221c.039-.103.111-.16.09-.293l-.064-.187v-.337c-.003-.2.017-.379-.078-.55-.38-.688-1.236-.929-1.975-.789-.18.034-.287.126-.442.207-.17.088-.139.166-.318.224-.081.026-.216.124-.215.224l.012.169-.03-.025"/><path d="M54.118-41.042c.018.072.007.127-.026.19l-.165.128c-.05.062-.099.276-.079.362-.169.058-.009.227-.015.35l-.045.161c-.01.119.017.266.068.37.097.198.268.413.435.544.19.148.365.572.608.631.177.042.384-.104.543-.143.18-.043.397.01.571-.053.222-.079.127-.337.288-.45.104-.074.287-.01.406-.051.2-.069.339-.263.376-.46l.039-.221c.038-.103.111-.16.09-.293l-.064-.187v-.337c-.003-.2.017-.379-.078-.55-.38-.688-1.236-.929-1.975-.789-.18.034-.287.126-.442.207-.17.088-.139.166-.318.224-.081.026-.216.124-.215.224l.012.169-.03-.025"/><path d="M46.458-41.042c.018.072.007.127-.026.19l-.165.128c-.05.062-.099.276-.079.362-.169.058-.009.227-.015.35l-.045.161c-.01.119.017.266.068.37.097.198.268.413.435.544.19.148.365.572.608.631.177.042.384-.104.543-.143.18-.043.397.01.571-.053.222-.079.127-.337.288-.45.104-.074.287-.01.406-.051.2-.069.339-.263.376-.46l.039-.221c.039-.103.111-.16.09-.293l-.064-.187v-.337c-.003-.2.017-.379-.078-.55-.38-.688-1.236-.929-1.975-.789-.18.034-.287.126-.442.207-.17.088-.139.166-.318.224-.081.026-.216.124-.215.224l.012.169-.03-.025"/><path d="M38.797-41.042c.017.072.007.127-.026.19l-.165.128c-.05.062-.099.276-.079.362-.169.058-.009.227-.015.35l-.045.161c-.01.119.017.266.068.37.097.198.268.413.435.544.19.148.365.572.608.631.177.042.384-.104.543-.143.18-.043.397.01.571-.053.222-.079.127-.337.288-.45.104-.074.287-.01.406-.051.2-.069.339-.263.376-.46l.039-.221c.039-.103.111-.16.09-.293l-.065-.187v-.337c-.003-.2.017-.379-.078-.55-.38-.688-1.236-.929-1.975-.789-.18.034-.287.126-.442.207-.17.088-.139.166-.318.224-.081.026-.216.124-.215.224l.012.169-.03-.025"/><path d="M31.137-41.042c.018.072.007.127-.026.19l-.165.128c-.05.062-.099.276-.079.362-.169.058-.009.227-.015.35l-.045.161c-.01.119.017.266.068.37.097.198.268.413.435.544.19.148.365.572.608.631.177.042.384-.104.543-.143.18-.043.397.01.571-.053.222-.079.127-.337.288-.45.104-.074.287-.01.406-.051.2-.069.339-.263.376-.46l.039-.221c.039-.103.111-.16.09-.293l-.064-.187v-.337c-.003-.2.017-.379-.078-.55-.38-.688-1.236-.929-1.975-.789-.18.034-.287.126-.442.207-.17.088-.139.166-.318.224-.081.026-.216.124-.215.224l.012.169-.03-.025"/><path d="M23.477-41.042c.017.072.007.127-.026.19l-.165.128c-.05.062-.099.276-.079.362-.169.058-.009.227-.015.35l-.045.161c-.01.119.017.266.068.37.097.198.268.413.435.544.19.148.365.572.608.631.177.042.384-.104.543-.143.18-.043.397.01.571-.053.222-.079.127-.337.288-.45.104-.074.287-.01.406-.051.2-.069.339-.263.376-.46l.039-.221c.038-.103.111-.16.09-.293l-.065-.187v-.337c-.003-.2.017-.379-.078-.55-.38-.688-1.236-.929-1.975-.789-.18.034-.287.126-.442.207-.17.088-.139.166-.318.224-.081.026-.216.124-.215.224l.012.169-.03-.025"/><path d="M15.816-41.042c.018.072.007.127-.026.19l-.165.128c-.05.062-.099.276-.079.362-.169.058-.009.227-.015.35l-.045.161c-.01.119.017.266.068.37.097.198.268.413.435.544.19.148.365.572.608.631.177.042.384-.104.543-.143.18-.043.397.01.571-.053.222-.079.128-.337.288-.45.104-.074.287-.01.406-.051.2-.069.339-.263.376-.46l.039-.221c.039-.103.111-.16.09-.293l-.064-.187v-.337c-.003-.2.017-.379-.078-.55-.38-.688-1.236-.929-1.975-.789-.18.034-.287.126-.442.207-.17.088-.139.166-.318.224-.081.026-.216.124-.215.224l.012.169-.03-.025"/><path d="M8.156-41.042c.018.072.007.127-.026.19l-.165.128c-.05.062-.099.276-.079.362-.169.058-.009.227-.015.35l-.045.161c-.01.119.017.266.068.37.097.198.268.413.435.544.19.148.365.572.608.631.177.042.384-.104.543-.143.18-.043.397.01.571-.053.222-.079.127-.337.288-.45.104-.074.287-.01.406-.051.2-.069.339-.263.376-.46l.039-.221c.038-.103.111-.16.09-.293l-.064-.187v-.337c-.003-.2.017-.379-.078-.55-.38-.688-1.236-.929-1.975-.789-.18.034-.287.126-.442.207-.17.088-.139.166-.318.224-.081.026-.216.124-.215.224l.012.169-.03-.024"/><path d="M.495-41.042c.018.072.007.127-.026.19l-.165.128c-.05.062-.099.276-.079.362-.169.058-.01.227-.015.35l-.045.161c-.01.119.017.266.068.37.097.198.268.413.435.544.19.148.365.572.608.631.177.042.384-.104.543-.143.18-.043.397.01.571-.053.222-.079.127-.337.288-.45.104-.074.287-.01.406-.051.2-.069.339-.263.376-.46l.039-.221c.039-.103.111-.16.09-.293l-.064-.187v-.337c-.003-.2.017-.379-.078-.55-.38-.688-1.236-.929-1.975-.789-.18.034-.287.126-.442.207-.17.088-.139.166-.318.224-.081.026-.216.124-.215.224l.012.169-.03-.025"/><path d="M69.439-33.39c.017.072.007.127-.026.19l-.165.128c-.05.062-.099.276-.079.362-.169.058-.01.227-.015.35l-.045.161c-.01.119.017.266.068.37.097.198.268.413.435.544.19.149.365.572.608.631.177.042.384-.104.543-.143.18-.043.397.01.571-.053.222-.079.127-.337.288-.45.104-.074.287-.01.406-.051.2-.069.339-.263.376-.46l.039-.221c.039-.103.111-.16.09-.293l-.064-.187.001-.337c-.003-.2.017-.379-.078-.55-.38-.688-1.236-.929-1.975-.789-.18.034-.287.126-.442.207-.17.088-.139.166-.318.224-.081.026-.216.124-.215.224l.012.169-.03-.025"/><path d="M61.778-33.39c.018.072.007.127-.026.19l-.165.128c-.05.062-.099.276-.079.362-.169.058-.009.227-.015.35l-.045.161c-.01.119.017.266.068.37.097.198.268.413.435.544.19.149.365.572.608.631.177.042.384-.104.543-.143.18-.043.397.01.571-.053.222-.079.127-.337.288-.45.104-.074.287-.01.406-.051.2-.069.339-.263.376-.46l.039-.221c.039-.103.111-.16.09-.293l-.064-.187v-.337c-.003-.2.017-.379-.078-.55-.38-.688-1.236-.929-1.975-.789-.18.034-.287.126-.442.207-.17.088-.139.166-.318.224-.081.026-.216.124-.215.224l.012.169-.03-.025"/><path d="M54.118-33.39c.018.072.007.127-.026.19l-.165.128c-.05.062-.099.276-.079.362-.169.058-.009.227-.015.35l-.045.161c-.01.119.017.266.068.37.097.198.268.413.435.544.19.149.365.572.608.631.177.042.384-.104.543-.143.18-.043.397.01.571-.053.222-.079.127-.337.288-.45.104-.074.287-.01.406-.051.2-.069.339-.263.376-.46l.039-.221c.038-.103.111-.16.09-.293l-.064-.187v-.337c-.003-.2.017-.379-.078-.55-.38-.688-1.236-.929-1.975-.789-.18.034-.287.126-.442.207-.17.088-.139.166-.318.224-.081.026-.216.124-.215.224l.012.169-.03-.025"/><path d="M46.458-33.39c.018.072.007.127-.026.19l-.165.128c-.05.062-.099.276-.079.362-.169.058-.009.227-.015.35l-.045.161c-.01.119.017.266.068.37.097.198.268.413.435.544.19.149.365.572.608.631.177.042.384-.104.543-.143.18-.043.397.01.571-.053.222-.079.127-.337.288-.45.104-.074.287-.01.406-.051.2-.069.339-.263.376-.46l.039-.221c.039-.103.111-.16.09-.293l-.064-.187v-.337c-.003-.2.017-.379-.078-.55-.38-.688-1.236-.929-1.975-.789-.18.034-.287.126-.442.207-.17.088-.139.166-.318.224-.081.026-.216.124-.215.224l.012.169-.03-.025"/><path d="M38.797-33.39c.017.072.007.127-.026.19l-.165.128c-.05.062-.099.276-.079.362-.169.058-.009.227-.015.35l-.045.161c-.01.119.017.266.068.37.097.198.268.413.435.544.19.149.365.572.608.631.177.042.384-.104.543-.143.18-.043.397.01.571-.053.222-.079.127-.337.288-.45.104-.074.287-.01.406-.051.2-.069.339-.263.376-.46l.039-.221c.039-.103.111-.16.09-.293l-.065-.187v-.337c-.003-.2.017-.379-.078-.55-.38-.688-1.236-.929-1.975-.789-.18.034-.287.126-.442.207-.17.088-.139.166-.318.224-.081.026-.216.124-.215.224l.012.169-.03-.025"/><path d="M31.137-33.39c.018.072.007.127-.026.19l-.165.128c-.05.062-.099.276-.079.362-.169.058-.009.227-.015.35l-.045.161c-.01.119.017.266.068.37.097.198.268.413.435.544.19.149.365.572.608.631.177.042.384-.104.543-.143.18-.043.397.01.571-.053.222-.079.127-.337.288-.45.104-.074.287-.01.406-.051.2-.069.339-.263.376-.46l.039-.221c.039-.103.111-.16.09-.293l-.064-.187v-.337c-.003-.2.017-.379-.078-.55-.38-.688-1.236-.929-1.975-.789-.18.034-.287.126-.442.207-.17.088-.139.166-.318.224-.081.026-.216.124-.215.224l.012.169-.03-.025"/><path d="M23.477-33.39c.017.072.007.127-.026.19l-.165.128c-.05.062-.099.276-.079.362-.169.058-.009.227-.015.35l-.045.161c-.01.119.017.266.068.37.097.198.268.413.435.544.19.149.365.572.608.631.177.042.384-.104.543-.143.18-.043.397.01.571-.053.222-.079.127-.337.288-.45.104-.074.287-.01.406-.051.2-.069.339-.263.376-.46l.039-.221c.038-.103.111-.16.09-.293l-.065-.187v-.337c-.003-.2.017-.379-.078-.55-.38-.688-1.236-.929-1.975-.789-.18.034-.287.126-.442.207-.17.088-.139.166-.318.224-.081.026-.216.124-.215.224l.012.169-.03-.025"/><path d="M15.816-33.39c.018.072.007.127-.026.19l-.165.128c-.05.062-.099.276-.079.362-.169.058-.009.227-.015.35l-.045.161c-.01.119.017.266.068.37.097.198.268.413.435.544.19.149.365.572.608.631.177.042.384-.104.543-.143.18-.043.397.01.571-.053.222-.079.128-.337.288-.45.104-.074.287-.01.406-.051.2-.069.339-.263.376-.46l.039-.221c.039-.103.111-.16.09-.293l-.064-.187v-.337c-.003-.2.017-.379-.078-.55-.38-.688-1.236-.929-1.975-.789-.18.034-.287.126-.442.207-.17.088-.139.166-.318.224-.081.026-.216.124-.215.224l.012.169-.03-.025"/><path d="M8.156-33.39c.018.072.007.127-.026.19l-.165.128c-.05.062-.099.276-.079.362-.169.058-.009.227-.015.35l-.045.161c-.01.119.017.266.068.37.097.198.268.413.435.544.19.149.365.572.608.631.177.042.384-.104.543-.143.18-.043.397.01.571-.053.222-.079.127-.337.288-.45.104-.074.287-.01.406-.051.2-.069.339-.263.376-.46l.039-.221c.038-.103.111-.16.09-.293l-.064-.187v-.337c-.003-.2.017-.379-.078-.55-.38-.688-1.236-.929-1.975-.789-.18.034-.287.126-.442.207-.17.088-.139.166-.318.224-.081.026-.216.124-.215.224l.012.169-.03-.025"/><path d="M.495-33.39c.018.072.007.127-.026.19l-.165.128c-.05.062-.099.276-.079.362-.169.058-.01.227-.015.35l-.045.161c-.01.119.017.266.068.37.097.198.268.413.435.544.19.149.365.572.608.631.177.042.384-.104.543-.143.18-.043.397.01.571-.053.222-.079.127-.337.288-.45.104-.074.287-.01.406-.051.2-.069.339-.263.376-.46l.039-.221c.039-.103.111-.16.09-.293l-.064-.187v-.337c-.003-.2.017-.379-.078-.55-.38-.688-1.236-.929-1.975-.789-.18.034-.287.126-.442.207-.17.088-.139.166-.318.224-.081.026-.216.124-.215.224l.013.171-.03-.025"/><path d="M69.439-25.736c.017.072.007.127-.026.19l-.165.128c-.05.062-.099.276-.079.362-.169.058-.01.227-.015.35l-.045.161c-.01.119.017.266.068.37.097.198.268.413.435.544.19.148.365.572.608.631.177.042.384-.104.543-.143.18-.043.397.01.571-.053.222-.079.127-.337.288-.45.104-.074.287-.01.406-.051.2-.069.339-.263.376-.46l.039-.221c.039-.102.111-.16.09-.293l-.064-.186.001-.337c-.003-.2.017-.379-.078-.55-.38-.688-1.236-.929-1.975-.789-.18.034-.287.126-.442.207-.17.088-.139.166-.318.224-.081.026-.216.124-.215.224l.012.169-.03-.025"/><path d="M61.778-25.736c.018.072.007.127-.026.19l-.165.128c-.05.062-.099.276-.079.362-.169.058-.009.227-.015.35l-.045.161c-.01.119.017.266.068.37.097.198.268.413.435.544.19.148.365.572.608.631.177.042.384-.104.543-.143.18-.043.397.01.571-.053.222-.079.127-.337.288-.45.104-.074.287-.01.406-.051.2-.069.339-.263.376-.46l.039-.221c.039-.102.111-.16.09-.293l-.064-.186v-.337c-.003-.2.017-.379-.078-.55-.38-.688-1.236-.929-1.975-.789-.18.034-.287.126-.442.207-.17.088-.139.166-.318.224-.081.026-.216.124-.215.224l.012.169-.03-.025"/><path d="M54.118-25.736c.018.072.007.127-.026.19l-.165.128c-.05.062-.099.276-.079.362-.169.058-.009.227-.015.35l-.045.161c-.01.119.017.266.068.37.097.198.268.413.435.544.19.148.365.572.608.631.177.042.384-.104.543-.143.18-.043.397.01.571-.053.222-.079.127-.337.288-.45.104-.074.287-.01.406-.051.2-.069.339-.263.376-.46l.039-.221c.038-.102.111-.16.09-.293l-.064-.186v-.337c-.003-.2.017-.379-.078-.55-.38-.688-1.236-.929-1.975-.789-.18.034-.287.126-.442.207-.17.088-.139.166-.318.224-.081.026-.216.124-.215.224l.012.169-.03-.025"/><path d="M46.458-25.736c.018.072.007.127-.026.19l-.165.128c-.05.062-.099.276-.079.362-.169.058-.009.227-.015.35l-.045.161c-.01.119.017.266.068.37.097.198.268.413.435.544.19.148.365.572.608.631.177.042.384-.104.543-.143.18-.043.397.01.571-.053.222-.079.127-.337.288-.45.104-.074.287-.01.406-.051.2-.069.339-.263.376-.46l.039-.221c.039-.102.111-.16.09-.293l-.064-.186v-.337c-.003-.2.017-.379-.078-.55-.38-.688-1.236-.929-1.975-.789-.18.034-.287.126-.442.207-.17.088-.139.166-.318.224-.081.026-.216.124-.215.224l.012.169-.03-.025"/><path d="M38.797-25.736c.017.072.007.127-.026.19l-.165.128c-.05.062-.099.276-.079.362-.169.058-.009.227-.015.35l-.045.161c-.01.119.017.266.068.37.097.198.268.413.435.544.19.148.365.572.608.631.177.042.384-.104.543-.143.18-.043.397.01.571-.053.222-.079.127-.337.288-.45.104-.074.287-.01.406-.051.2-.069.339-.263.376-.46l.039-.221c.039-.102.111-.16.09-.293l-.065-.186v-.337c-.003-.2.017-.379-.078-.55-.38-.688-1.236-.929-1.975-.789-.18.034-.287.126-.442.207-.17.088-.139.166-.318.224-.081.026-.216.124-.215.224l.012.169-.03-.025"/><path d="M31.137-25.736c.018.072.007.127-.026.19l-.165.128c-.05.062-.099.276-.079.362-.169.058-.009.227-.015.35l-.045.161c-.01.119.017.266.068.37.097.198.268.413.435.544.19.148.365.572.608.631.177.042.384-.104.543-.143.18-.043.397.01.571-.053.222-.079.127-.337.288-.45.104-.074.287-.01.406-.051.2-.069.339-.263.376-.46l.039-.221c.039-.102.111-.16.09-.293l-.064-.186v-.337c-.003-.2.017-.379-.078-.55-.38-.688-1.236-.929-1.975-.789-.18.034-.287.126-.442.207-.17.088-.139.166-.318.224-.081.026-.216.124-.215.224l.012.169-.03-.025"/><path d="M23.477-25.736c.017.072.007.127-.026.19l-.165.128c-.05.062-.099.276-.079.362-.169.058-.009.227-.015.35l-.045.161c-.01.119.017.266.068.37.097.198.268.413.435.544.19.148.365.572.608.631.177.042.384-.104.543-.143.18-.043.397.01.571-.053.222-.079.127-.337.288-.45.104-.074.287-.01.406-.051.2-.069.339-.263.376-.46l.039-.221c.038-.102.111-.16.09-.293l-.065-.186v-.337c-.003-.2.017-.379-.078-.55-.38-.688-1.236-.929-1.975-.789-.18.034-.287.126-.442.207-.17.088-.139.166-.318.224-.081.026-.216.124-.215.224l.012.169-.03-.025"/><path d="M15.816-25.736c.018.072.007.127-.026.19l-.165.128c-.05.062-.099.276-.079.362-.169.058-.009.227-.015.35l-.045.161c-.01.119.017.266.068.37.097.198.268.413.435.544.19.148.365.572.608.631.177.042.384-.104.543-.143.18-.043.397.01.571-.053.222-.079.128-.337.288-.45.104-.074.287-.01.406-.051.2-.069.339-.263.376-.46l.039-.221c.039-.102.111-.16.09-.293l-.064-.186v-.337c-.003-.2.017-.379-.078-.55-.38-.688-1.236-.929-1.975-.789-.18.034-.287.126-.442.207-.17.088-.139.166-.318.224-.081.026-.216.124-.215.224l.012.169-.03-.025"/><path d="M8.156-25.736c.018.072.007.127-.026.19l-.165.128c-.05.062-.099.276-.079.362-.169.058-.009.227-.015.35l-.045.161c-.01.119.017.266.068.37.097.198.268.413.435.544.19.148.365.572.608.631.177.042.384-.104.543-.143.18-.043.397.01.571-.053.222-.079.127-.337.288-.45.104-.074.287-.01.406-.051.2-.069.339-.263.376-.46l.039-.221c.038-.102.111-.16.09-.293l-.064-.186v-.337c-.003-.2.017-.379-.078-.55-.38-.688-1.236-.929-1.975-.789-.18.034-.287.126-.442.207-.17.088-.139.166-.318.224-.081.026-.216.124-.215.224l.012.169-.03-.025"/><path d="M.495-25.736c.018.072.007.127-.026.19l-.165.128c-.05.062-.099.276-.079.362-.169.058-.01.227-.015.35l-.045.161c-.01.119.017.266.068.37.097.198.268.413.435.544.19.148.365.572.608.631.177.042.384-.104.543-.143.18-.043.397.01.571-.053.222-.079.127-.337.288-.45.104-.074.287-.01.406-.051.2-.069.339-.263.376-.46l.039-.221c.039-.102.111-.16.09-.293l-.064-.186v-.337c-.003-.2.017-.379-.078-.55-.38-.688-1.236-.929-1.975-.789-.18.034-.287.126-.442.207-.17.088-.139.166-.318.224-.081.026-.216.124-.215.224l.012.169-.03-.025"/><path d="M69.439-18.084c.017.072.007.127-.026.19l-.165.128c-.05.062-.099.276-.079.362-.169.058-.01.226-.015.35l-.045.161c-.01.119.017.266.068.37.097.198.268.413.435.544.19.148.365.572.608.631.177.042.384-.104.543-.142.18-.043.397.01.571-.053.222-.079.127-.337.288-.45.104-.074.287-.01.406-.051.2-.069.339-.263.376-.46l.039-.221c.039-.103.111-.16.09-.293l-.064-.187.001-.337c-.003-.2.017-.379-.078-.55-.38-.688-1.236-.929-1.975-.789-.18.034-.287.126-.442.207-.17.088-.139.166-.318.224-.081.026-.216.124-.215.224l.012.169-.03-.025"/><path d="M61.778-18.084c.018.072.007.127-.026.19l-.165.128c-.05.062-.099.276-.079.362-.169.058-.009.226-.015.35l-.045.161c-.01.119.017.266.068.37.097.198.268.413.435.544.19.148.365.572.608.631.177.042.384-.104.543-.142.18-.043.397.01.571-.053.222-.079.127-.337.288-.45.104-.074.287-.01.406-.051.2-.069.339-.263.376-.46l.039-.221c.039-.103.111-.16.09-.293l-.064-.187v-.337c-.003-.2.017-.379-.078-.55-.38-.688-1.236-.929-1.975-.789-.18.034-.287.126-.442.207-.17.088-.139.166-.318.224-.081.026-.216.124-.215.224l.012.169-.03-.025"/><path d="M54.118-18.084c.018.072.007.127-.026.19l-.165.128c-.05.062-.099.276-.079.362-.169.058-.009.226-.015.35l-.045.161c-.01.119.017.266.068.37.097.198.268.413.435.544.19.148.365.572.608.631.177.042.384-.104.543-.142.18-.043.397.01.571-.053.222-.079.127-.337.288-.45.104-.074.287-.01.406-.051.2-.069.339-.263.376-.46l.039-.221c.038-.103.111-.16.09-.293l-.064-.187v-.337c-.003-.2.017-.379-.078-.55-.38-.688-1.236-.929-1.975-.789-.18.034-.287.126-.442.207-.17.088-.139.166-.318.224-.081.026-.216.124-.215.224l.012.169-.03-.025"/><path d="M46.458-18.084c.018.072.007.127-.026.19l-.165.128c-.05.062-.099.276-.079.362-.169.058-.009.226-.015.35l-.045.161c-.01.119.017.266.068.37.097.198.268.413.435.544.19.148.365.572.608.631.177.042.384-.104.543-.142.18-.043.397.01.571-.053.222-.079.127-.337.288-.45.104-.074.287-.01.406-.051.2-.069.339-.263.376-.46l.039-.221c.039-.103.111-.16.09-.293l-.064-.187v-.337c-.003-.2.017-.379-.078-.55-.38-.688-1.236-.929-1.975-.789-.18.034-.287.126-.442.207-.17.088-.139.166-.318.224-.081.026-.216.124-.215.224l.012.169-.03-.025"/><path d="M38.797-18.084c.017.072.007.127-.026.19l-.165.128c-.05.062-.099.276-.079.362-.169.058-.009.226-.015.35l-.045.161c-.01.119.017.266.068.37.097.198.268.413.435.544.19.148.365.572.608.631.177.042.384-.104.543-.142.18-.043.397.01.571-.053.222-.079.127-.337.288-.45.104-.074.287-.01.406-.051.2-.069.339-.263.376-.46l.039-.221c.039-.103.111-.16.09-.293l-.065-.187v-.337c-.003-.2.017-.379-.078-.55-.38-.688-1.236-.929-1.975-.789-.18.034-.287.126-.442.207-.17.088-.139.166-.318.224-.081.026-.216.124-.215.224l.012.169-.03-.025"/><path d="M31.137-18.084c.018.072.007.127-.026.19l-.165.128c-.05.062-.099.276-.079.362-.169.058-.009.226-.015.35l-.045.161c-.01.119.017.266.068.37.097.198.268.413.435.544.19.148.365.572.608.631.177.042.384-.104.543-.142.18-.043.397.01.571-.053.222-.079.127-.337.288-.45.104-.074.287-.01.406-.051.2-.069.339-.263.376-.46l.039-.221c.039-.103.111-.16.09-.293l-.064-.187v-.337c-.003-.2.017-.379-.078-.55-.38-.688-1.236-.929-1.975-.789-.18.034-.287.126-.442.207-.17.088-.139.166-.318.224-.081.026-.216.124-.215.224l.012.169-.03-.025"/><path d="M23.477-18.084c.017.072.007.127-.026.19l-.165.128c-.05.062-.099.276-.079.362-.169.058-.009.226-.015.35l-.045.161c-.01.119.017.266.068.37.097.198.268.413.435.544.19.148.365.572.608.631.177.042.384-.104.543-.142.18-.043.397.01.571-.053.222-.079.127-.337.288-.45.104-.074.287-.01.406-.051.2-.069.339-.263.376-.46l.039-.221c.038-.103.111-.16.09-.293l-.065-.187v-.337c-.003-.2.017-.379-.078-.55-.38-.688-1.236-.929-1.975-.789-.18.034-.287.126-.442.207-.17.088-.139.166-.318.224-.081.026-.216.124-.215.224l.012.169-.03-.025"/><path d="M15.816-18.084c.018.072.007.127-.026.19l-.165.128c-.05.062-.099.276-.079.362-.169.058-.009.226-.015.35l-.045.161c-.01.119.017.266.068.37.097.198.268.413.435.544.19.148.365.572.608.631.177.042.384-.104.543-.142.18-.043.397.01.571-.053.222-.079.128-.337.288-.45.104-.074.287-.01.406-.051.2-.069.339-.263.376-.46l.039-.221c.039-.103.111-.16.09-.293l-.064-.187v-.337c-.003-.2.017-.379-.078-.55-.38-.688-1.236-.929-1.975-.789-.18.034-.287.126-.442.207-.17.088-.139.166-.318.224-.081.026-.216.124-.215.224l.012.169-.03-.025"/><path d="M8.156-18.084c.018.072.007.127-.026.19l-.165.128c-.05.062-.099.276-.079.362-.169.058-.009.226-.015.35l-.045.161c-.01.119.017.266.068.37.097.198.268.413.435.544.19.148.365.572.608.631.177.042.384-.104.543-.142.18-.043.397.01.571-.053.222-.079.127-.337.288-.45.104-.074.287-.01.406-.051.2-.069.339-.263.376-.46l.039-.221c.038-.103.111-.16.09-.293l-.064-.187v-.337c-.003-.2.017-.379-.078-.55-.38-.688-1.236-.929-1.975-.789-.18.034-.287.126-.442.207-.17.088-.139.166-.318.224-.081.026-.216.124-.215.224l.012.169-.03-.025"/><path d="M.495-18.084c.018.072.007.127-.026.19l-.165.128c-.05.062-.099.276-.079.362-.169.058-.01.226-.015.35l-.045.161c-.01.119.017.266.068.37.097.198.268.413.435.544.19.148.365.572.608.631.177.042.384-.104.543-.142.18-.043.397.01.571-.053.222-.079.127-.337.288-.45.104-.074.287-.01.406-.051.2-.069.339-.263.376-.46l.039-.221c.039-.103.111-.16.09-.293l-.064-.187v-.337c-.003-.2.017-.379-.078-.55-.38-.688-1.236-.929-1.975-.789-.18.034-.287.126-.442.207-.17.088-.139.166-.318.224-.081.026-.216.124-.215.224l.013.169-.03-.025"/><path d="M69.439-10.431c.017.072.007.127-.026.191l-.165.128c-.05.062-.099.276-.079.362-.169.058-.01.227-.015.35l-.045.161c-.01.119.017.266.068.37.097.198.268.413.435.544.19.148.365.572.608.631.177.042.384-.104.543-.143.18-.043.397.01.571-.053.222-.079.127-.337.288-.45.104-.074.287-.01.406-.051.2-.069.339-.263.376-.46l.039-.221c.039-.103.111-.16.09-.293l-.064-.187.001-.337c-.003-.2.017-.379-.078-.55-.38-.688-1.236-.929-1.975-.789-.18.034-.287.126-.442.207-.17.088-.139.166-.318.224-.081.026-.216.124-.215.224l.012.169-.03-.025"/><path d="M61.778-10.431c.018.072.007.127-.026.191l-.165.128c-.05.062-.099.276-.079.362-.169.058-.009.227-.015.35l-.045.161c-.01.119.017.266.068.37.097.198.268.413.435.544.19.148.365.572.608.631.177.042.384-.104.543-.143.18-.043.397.01.571-.053.222-.079.127-.337.288-.45.104-.074.287-.01.406-.051.2-.069.339-.263.376-.46l.039-.221c.039-.103.111-.16.09-.293l-.064-.187v-.337c-.003-.2.017-.379-.078-.55-.38-.688-1.236-.929-1.975-.789-.18.034-.287.126-.442.207-.17.088-.139.166-.318.224-.081.026-.216.124-.215.224l.012.169-.03-.025"/><path d="M54.118-10.431c.018.072.007.127-.026.191l-.165.128c-.05.062-.099.276-.079.362-.169.058-.009.227-.015.35l-.045.161c-.01.119.017.266.068.37.097.198.268.413.435.544.19.148.365.572.608.631.177.042.384-.104.543-.143.18-.043.397.01.571-.053.222-.079.127-.337.288-.45.104-.074.287-.01.406-.051.2-.069.339-.263.376-.46l.039-.221c.038-.103.111-.16.09-.293l-.064-.187v-.337c-.003-.2.017-.379-.078-.55-.38-.688-1.236-.929-1.975-.789-.18.034-.287.126-.442.207-.17.088-.139.166-.318.224-.081.026-.216.124-.215.224l.012.169-.03-.025"/><path d="M46.458-10.431c.018.072.007.127-.026.191l-.165.128c-.05.062-.099.276-.079.362-.169.058-.009.227-.015.35l-.045.161c-.01.119.017.266.068.37.097.198.268.413.435.544.19.148.365.572.608.631.177.042.384-.104.543-.143.18-.043.397.01.571-.053.222-.079.127-.337.288-.45.104-.074.287-.01.406-.051.2-.069.339-.263.376-.46l.039-.221c.039-.103.111-.16.09-.293l-.064-.187v-.337c-.003-.2.017-.379-.078-.55-.38-.688-1.236-.929-1.975-.789-.18.034-.287.126-.442.207-.17.088-.139.166-.318.224-.081.026-.216.124-.215.224l.012.169-.03-.025"/><path d="M38.797-10.431c.017.072.007.127-.026.191l-.165.128c-.05.062-.099.276-.079.362-.169.058-.009.227-.015.35l-.045.161c-.01.119.017.266.068.37.097.198.268.413.435.544.19.148.365.572.608.631.177.042.384-.104.543-.143.18-.043.397.01.571-.053.222-.079.127-.337.288-.45.104-.074.287-.01.406-.051.2-.069.339-.263.376-.46l.039-.221c.039-.103.111-.16.09-.293l-.065-.187v-.337c-.003-.2.017-.379-.078-.55-.38-.688-1.236-.929-1.975-.789-.18.034-.287.126-.442.207-.17.088-.139.166-.318.224-.081.026-.216.124-.215.224l.012.169-.03-.025"/><path d="M31.137-10.431c.018.072.007.127-.026.191l-.165.128c-.05.062-.099.276-.079.362-.169.058-.009.227-.015.35l-.045.161c-.01.119.017.266.068.37.097.198.268.413.435.544.19.148.365.572.608.631.177.042.384-.104.543-.143.18-.043.397.01.571-.053.222-.079.127-.337.288-.45.104-.074.287-.01.406-.051.2-.069.339-.263.376-.46l.039-.221c.039-.103.111-.16.09-.293l-.064-.187v-.337c-.003-.2.017-.379-.078-.55-.38-.688-1.236-.929-1.975-.789-.18.034-.287.126-.442.207-.17.088-.139.166-.318.224-.081.026-.216.124-.215.224l.012.169-.03-.025"/><path d="M23.477-10.431c.017.072.007.127-.026.191l-.165.128c-.05.062-.099.276-.079.362-.169.058-.009.227-.015.35l-.045.161c-.01.119.017.266.068.37.097.198.268.413.435.544.19.148.365.572.608.631.177.042.384-.104.543-.143.18-.043.397.01.571-.053.222-.079.127-.337.288-.45.104-.074.287-.01.406-.051.2-.069.339-.263.376-.46l.039-.221c.038-.103.111-.16.09-.293l-.065-.187v-.337c-.003-.2.017-.379-.078-.55-.38-.688-1.236-.929-1.975-.789-.18.034-.287.126-.442.207-.17.088-.139.166-.318.224-.081.026-.216.124-.215.224l.012.169-.03-.025"/><path d="M15.816-10.431c.018.072.007.127-.026.191l-.165.128c-.05.062-.099.276-.079.362-.169.058-.009.227-.015.35l-.045.161c-.01.119.017.266.068.37.097.198.268.413.435.544.19.148.365.572.608.631.177.042.384-.104.543-.143.18-.043.397.01.571-.053.222-.079.128-.337.289-.45.104-.074.287-.01.406-.051.2-.069.339-.263.376-.46l.039-.221c.039-.103.111-.16.09-.293l-.064-.187v-.337c-.003-.2.017-.379-.078-.55-.38-.688-1.236-.929-1.975-.789-.18.034-.287.126-.442.207-.17.088-.139.166-.318.224-.081.026-.216.124-.215.224l.012.169-.03-.025"/><path d="M8.156-10.431c.018.072.007.127-.026.191l-.165.128c-.05.062-.099.276-.079.362-.169.058-.01.227-.015.35l-.045.161c-.01.119.017.266.068.37.097.198.268.413.435.544.19.148.365.572.608.631.177.042.384-.105.543-.143.18-.043.397.01.571-.053.222-.079.127-.337.288-.45.104-.074.287-.01.406-.051.2-.069.339-.263.376-.46l.039-.221c.038-.103.111-.16.09-.293l-.064-.187v-.337c-.003-.2.017-.379-.078-.55-.38-.688-1.236-.929-1.975-.789-.18.034-.287.126-.442.207-.17.088-.139.166-.318.224-.081.026-.216.124-.215.224l.012.169-.03-.025"/><path d="M.495-10.431c.018.072.007.127-.026.191l-.165.128c-.05.062-.099.276-.079.362-.169.058-.01.227-.015.35l-.045.161c-.01.119.017.266.068.37.097.198.268.413.435.544.19.148.365.572.608.631.178.042.384-.105.543-.143.181-.043.398.01.572-.053.222-.079.127-.337.288-.45.104-.074.287-.01.406-.051.2-.069.339-.263.376-.46l.039-.22c.039-.103.111-.16.09-.293l-.064-.187v-.337c-.003-.2.017-.379-.078-.55-.38-.688-1.236-.929-1.975-.789-.18.034-.287.126-.442.207-.17.088-.139.166-.318.224-.081.026-.216.124-.215.224l.012.169-.03-.025"/></g><g fill="#fff"><path d="M69.439-2.778c.017.072.008.127-.026.19l-.165.128c-.051.062-.099.276-.079.362-.169.058-.01.227-.015.35l-.045.161c-.01.119.017.266.068.37.097.198.268.413.435.544.19.148.365.572.608.631.177.042.384-.104.543-.143.18-.043.397.01.571-.053.222-.079.127-.337.288-.45.104-.074.287-.01.406-.051.2-.07.339-.263.376-.46l.039-.221c.038-.103.111-.16.09-.293l-.064-.187.001-.337c-.003-.2.017-.379-.078-.55-.38-.688-1.236-.929-1.975-.789-.18.034-.287.126-.442.207-.17.088-.139.166-.318.224-.081.026-.215.124-.215.224l.012.169-.03-.025"/><path d="M61.778-2.778c.018.072.007.127-.026.19l-.165.128c-.05.062-.099.276-.079.362-.169.058-.01.227-.015.35l-.045.161c-.01.119.017.266.068.37.097.198.268.413.435.544.19.148.365.572.608.631.178.042.384-.104.544-.143.18-.043.397.01.571-.053.222-.079.127-.337.288-.45.104-.074.287-.01.406-.051.2-.069.339-.263.376-.46l.039-.221c.039-.103.111-.16.09-.293l-.064-.187v-.337c-.003-.2.017-.379-.078-.55-.38-.688-1.236-.929-1.975-.789-.18.034-.287.126-.442.207-.17.088-.139.166-.318.224-.081.028-.216.125-.215.225l.012.169-.03-.025"/><path d="M54.118-2.778c.018.072.007.127-.026.19l-.165.128c-.05.062-.099.276-.079.362-.169.058-.01.227-.015.35l-.045.161c-.01.119.017.266.068.37.097.198.268.413.435.544.19.148.365.572.608.631.178.042.384-.104.543-.143.18-.043.397.01.571-.053.222-.079.127-.337.288-.45.104-.074.287-.01.406-.051.2-.069.339-.263.376-.46l.039-.221c.038-.103.111-.16.09-.293l-.064-.187v-.337c-.003-.2.017-.379-.078-.55-.38-.688-1.236-.929-1.975-.789-.18.034-.287.126-.442.207-.17.088-.139.166-.318.224-.08.028-.215.125-.214.225l.012.169-.03-.025"/><path d="M46.458-2.778c.018.072.007.127-.026.19l-.165.128c-.05.062-.099.276-.079.362-.169.058-.01.227-.015.35l-.045.161c-.01.119.017.266.068.37.097.198.268.413.435.544.19.148.365.572.608.631.177.042.384-.104.543-.143.18-.043.397.01.571-.053.222-.079.127-.337.288-.45.104-.074.287-.01.406-.051.2-.069.339-.263.376-.46l.039-.221c.039-.103.111-.16.09-.293l-.064-.187v-.337c-.003-.2.017-.379-.078-.55-.38-.688-1.236-.929-1.975-.789-.18.034-.287.126-.442.207-.17.088-.139.166-.318.224-.081.028-.216.125-.215.225l.012.169-.03-.025"/><path d="M38.797-2.778c.017.072.007.127-.026.19l-.165.128c-.05.062-.099.276-.079.362-.169.058-.01.227-.015.35l-.045.161c-.01.119.017.266.068.37.097.198.268.413.435.544.19.148.365.572.608.631.178.042.384-.104.544-.143.18-.043.397.01.571-.053.222-.079.127-.337.288-.45.104-.074.287-.01.406-.051.2-.069.339-.263.376-.46l.039-.221c.039-.103.111-.16.09-.293l-.065-.187v-.337c-.003-.2.017-.379-.078-.55-.38-.688-1.236-.929-1.975-.789-.18.034-.287.126-.442.207-.17.088-.139.166-.318.224-.08.028-.215.125-.214.225l.012.169-.03-.025"/><path d="M31.137-2.778c.018.072.007.127-.026.19l-.165.128c-.05.062-.099.276-.079.362-.169.058-.01.227-.015.35l-.045.161c-.01.119.017.266.068.37.097.198.268.413.435.544.19.148.365.572.608.631.177.042.384-.104.543-.143.18-.043.397.01.571-.053.222-.079.127-.337.288-.45.104-.074.287-.01.406-.051.2-.069.339-.263.376-.46l.039-.221c.039-.103.111-.16.09-.293l-.064-.187v-.337c-.003-.2.017-.379-.078-.55-.38-.688-1.236-.929-1.975-.789-.18.034-.287.126-.442.207-.17.088-.139.166-.318.224-.081.028-.215.125-.214.225l.012.169-.03-.025"/><path d="M23.477-2.778c.017.072.007.127-.026.19l-.165.128c-.05.062-.099.276-.079.362-.169.058-.01.227-.015.35l-.045.161c-.01.119.017.266.068.37.097.198.268.413.435.544.19.148.365.572.608.631.177.042.384-.104.543-.143.18-.043.397.01.571-.053.222-.079.127-.337.288-.45.104-.074.287-.01.406-.051.2-.069.339-.263.376-.46l.039-.221c.038-.103.111-.16.09-.293l-.065-.187v-.337c-.003-.2.017-.379-.078-.55-.38-.688-1.236-.929-1.975-.789-.18.034-.287.126-.442.207-.17.088-.139.166-.318.224-.081.026-.216.124-.215.224l.012.169-.03-.025"/><path d="M15.816-2.778c.018.072.007.127-.026.19l-.165.128c-.05.062-.099.276-.079.362-.169.058-.01.227-.015.35l-.045.161c-.01.119.017.266.068.37.097.198.268.413.435.544.19.148.365.572.608.631.177.042.384-.104.543-.143.18-.043.397.01.571-.053.222-.079.128-.337.288-.45.104-.074.287-.01.406-.051.2-.069.339-.263.376-.46l.039-.221c.039-.103.111-.16.09-.293l-.064-.187v-.337c-.003-.2.017-.379-.078-.55-.38-.688-1.236-.929-1.975-.789-.18.034-.287.126-.442.207-.17.088-.139.166-.318.224-.081.026-.216.124-.215.224l.012.169-.03-.024"/><path d="M8.156-2.778c.018.072.007.127-.026.19l-.165.128c-.05.062-.099.276-.079.362-.169.058-.01.227-.015.35l-.045.161c-.01.119.017.266.068.37.097.198.268.413.435.544.19.148.365.572.608.631.177.042.384-.104.543-.143.18-.043.397.01.571-.053.222-.079.127-.337.288-.45.104-.074.287-.01.406-.051.2-.069.339-.263.376-.46l.039-.221c.038-.103.111-.16.09-.293l-.064-.187v-.337c-.003-.2.017-.379-.078-.55-.38-.688-1.236-.929-1.975-.789-.179.036-.286.128-.441.209-.17.088-.139.166-.318.224-.082.026-.216.123-.215.223l.011.169-.03-.025"/><path d="M.495-2.778c.018.072.008.127-.026.19l-.165.128c-.051.063-.099.276-.079.362-.169.058-.01.227-.015.35l-.045.161c-.01.119.017.266.068.37.097.198.268.413.435.544.19.148.365.572.608.631.178.042.384-.104.543-.143.181-.043.398.01.572-.052.222-.079.127-.337.288-.45.104-.074.287-.01.406-.051.2-.07.339-.263.376-.46l.039-.221c.038-.103.111-.16.09-.293l-.064-.187v-.337c-.003-.2.017-.379-.078-.55-.38-.688-1.236-.929-1.975-.789-.18.035-.286.127-.442.208-.17.088-.139.166-.318.224-.081.026-.215.123-.215.223l.012.169-.031-.025"/></g></pattern><path d="M99.843 41.025c0-3.211 0-3.787-.042-4.445-.041-.7-.206-1.029-.885-1.174-.165-.041-.515-.062-.7-.062-.082 0-.164-.041-.164-.123 0-.124.103-.165.329-.165.927 0 2.182.062 2.366.062.186 0 1.421-.062 2.039-.062.226 0 .328.041.328.165 0 .082-.082.123-.164.123-.145 0-.268.021-.515.062-.556.082-.72.453-.762 1.174-.041.658-.041 1.234-.041 4.445v2.882c0 2.964.659 4.239 1.544 5.083 1.008.947 1.935 1.133 3.107 1.133 1.256 0 2.49-.598 3.231-1.482.946-1.173 1.194-2.922 1.194-5.042v-2.573c0-3.211 0-3.787-.041-4.445-.041-.7-.207-1.029-.886-1.174-.165-.041-.515-.062-.7-.062-.082 0-.164-.041-.164-.123 0-.124.103-.165.329-.165.927 0 2.058.062 2.182.062.144 0 1.112-.062 1.729-.062.227 0 .329.041.329.165 0 .082-.083.123-.165.123-.145 0-.268 0-.514.062-.557.104-.721.453-.762 1.174-.041.658-.041 1.234-.041 4.445v2.203c0 2.223-.248 4.692-1.895 6.153-1.481 1.317-3.025 1.523-4.24 1.523-.699 0-2.777-.083-4.239-1.462-1.009-.967-1.79-2.408-1.79-5.412v-3.006zM121.248 47.818c.041 1.688.247 2.223.803 2.387.391.104.844.123 1.029.123.104 0 .164.042.164.124 0 .124-.123.165-.37.165-1.173 0-1.997-.063-2.182-.063s-1.05.063-1.976.063c-.206 0-.33-.022-.33-.165 0-.082.062-.124.165-.124.165 0 .535-.019.845-.123.514-.145.617-.74.617-2.613l.02-11.794c0-.803.062-1.029.227-1.029s.516.453.721.659c.309.35 3.375 3.663 6.545 7.059 2.038 2.182 4.281 4.693 4.939 5.373l-.225-10.456c-.021-1.338-.165-1.791-.803-1.956-.37-.082-.845-.103-1.009-.103-.145 0-.164-.061-.164-.143 0-.124.164-.145.411-.145.927 0 1.914.062 2.141.062.226 0 .905-.062 1.749-.062.227 0 .371.021.371.145 0 .082-.082.143-.227.143-.104 0-.247 0-.494.062-.68.145-.762.598-.762 1.832l-.041 12.061c0 1.358-.041 1.461-.186 1.461-.164 0-.411-.226-1.502-1.317-.227-.205-3.19-3.23-5.372-5.578-2.388-2.572-4.714-5.166-5.372-5.906l.268 9.858zM144.484 44.648c0 1.976 0 3.602.104 4.466.062.597.185 1.05.803 1.132.288.041.741.082.926.082.124 0 .165.062.165.124 0 .103-.102.165-.329.165-1.133 0-2.429-.063-2.531-.063-.104 0-1.4.063-2.018.063-.227 0-.329-.041-.329-.165 0-.062.041-.124.165-.124.184 0 .432-.041.617-.082.412-.082.514-.535.597-1.132.103-.864.103-2.49.103-4.466v-3.623c0-3.211 0-3.787-.041-4.445-.041-.7-.246-1.05-.699-1.152-.227-.062-.494-.083-.639-.083-.082 0-.164-.041-.164-.123 0-.124.102-.165.329-.165.679 0 1.976.062 2.079.062.103 0 1.398-.062 2.017-.062.227 0 .329.041.329.165 0 .082-.082.123-.164.123-.145 0-.268.021-.516.062-.555.104-.72.453-.761 1.174-.042.658-.042 1.234-.042 4.445v3.622zM158.851 48.105c1.193-2.758 3.951-9.941 4.404-11.423.102-.309.185-.597.185-.782 0-.164-.062-.37-.268-.473-.248-.083-.557-.083-.783-.083-.123 0-.226-.02-.226-.123 0-.124.123-.165.452-.165.824 0 1.77.062 2.018.062.123 0 1.008-.062 1.605-.062.227 0 .35.041.35.145 0 .102-.082.143-.246.143-.145 0-.598 0-.988.247-.268.186-.576.535-1.133 1.936-.227.576-1.256 3.045-2.305 5.577-1.256 3.005-2.182 5.228-2.655 6.236-.576 1.235-.659 1.564-.864 1.564-.247 0-.35-.288-.741-1.276l-5.042-12.617c-.453-1.152-.762-1.379-1.482-1.584-.309-.083-.658-.083-.782-.083s-.165-.061-.165-.143c0-.124.206-.145.535-.145.988 0 2.162.062 2.408.062.206 0 1.133-.062 1.914-.062.371 0 .557.041.557.145 0 .102-.062.143-.207.143-.226 0-.596.021-.781.103-.227.104-.268.268-.268.412 0 .267.246.906.556 1.709l3.952 10.537zM172.228 41.025c0-3.211 0-3.787-.041-4.445-.041-.7-.205-1.029-.885-1.174-.164-.041-.514-.062-.699-.062-.082 0-.165-.041-.165-.123 0-.124.103-.165.329-.165.926 0 2.223.062 2.326.062.145 0 4.24 0 4.713-.021.391-.021.721-.061.885-.102l.289-.103c.061 0 .082.082.082.184 0 .145-.104.392-.164.968-.021.205-.062 1.111-.103 1.358-.021.103-.063.226-.145.226-.123 0-.164-.102-.164-.268 0-.144-.021-.493-.123-.74-.145-.33-.351-.576-1.462-.699-.351-.042-2.593-.062-2.819-.062-.083 0-.124.062-.124.206v5.681c0 .145.021.205.124.205.268 0 2.799 0 3.271-.041.494-.041.783-.082.968-.287.144-.165.227-.268.31-.268.06 0 .101.041.101.164s-.101.474-.164 1.152c-.041.412-.082 1.174-.082 1.317 0 .165 0 .392-.145.392-.103 0-.145-.082-.145-.185 0-.206 0-.412-.082-.68-.082-.287-.267-.638-1.07-.72-.555-.061-2.593-.103-2.943-.103-.103 0-.144.061-.144.144v1.812c0 .699-.02 3.087 0 3.52.062 1.42.37 1.688 2.388 1.688.535 0 1.44 0 1.976-.227.535-.227.782-.639.927-1.482.041-.226.082-.309.186-.309.123 0 .123.165.123.309 0 .165-.165 1.564-.268 1.997-.145.535-.309.535-1.111.535-3.108 0-4.487-.124-5.084-.124-.041 0-.391.022-.823.022-.411.019-.886.041-1.194.041-.227 0-.329-.041-.329-.165 0-.062.042-.124.165-.124.186 0 .432-.041.617-.082.412-.082.515-.535.598-1.132.102-.864.102-2.49.102-4.466v-3.624zM187.356 41.025c0-3.211 0-3.787-.041-4.445-.041-.7-.206-1.029-.886-1.174-.164-.041-.514-.062-.699-.062-.082 0-.164-.041-.164-.123 0-.124.103-.165.328-.165.927 0 2.224.062 2.326.062.227 0 1.791-.062 2.43-.062 1.296 0 2.676.123 3.766.906.515.37 1.42 1.379 1.42 2.799 0 1.523-.638 3.046-2.49 4.754 1.688 2.162 3.088 3.993 4.281 5.269 1.111 1.174 1.996 1.4 2.512 1.483.391.06.679.06.803.06.103 0 .185.062.185.124 0 .124-.124.165-.493.165h-1.462c-1.153 0-1.667-.104-2.202-.391-.885-.475-1.605-1.483-2.779-3.026-.863-1.132-1.832-2.511-2.243-3.046-.082-.082-.144-.123-.268-.123l-2.531-.042c-.103 0-.144.062-.144.165v.494c0 1.976 0 3.602.102 4.466.062.597.186 1.05.803 1.132.289.041.742.082.927.082.124 0 .165.062.165.124 0 .103-.104.165-.33.165-1.132 0-2.428-.063-2.531-.063-.021 0-1.317.063-1.935.063-.227 0-.329-.041-.329-.165 0-.062.041-.124.164-.124.186 0 .433-.041.617-.082.412-.082.516-.535.598-1.132.102-.864.102-2.49.102-4.466v-3.622zm1.648 1.791c0 .103.041.186.144.247.309.185 1.255.329 2.161.329.494 0 1.07-.062 1.543-.391.721-.494 1.256-1.605 1.256-3.17 0-2.572-1.358-4.117-3.56-4.117-.617 0-1.174.062-1.379.124-.104.041-.164.124-.164.247v6.731zM203.929 50.35c-.287-.145-.309-.227-.309-.782 0-1.029.082-1.853.104-2.182.02-.226.061-.329.164-.329.123 0 .145.062.145.227 0 .185 0 .473.062.761.309 1.524 1.666 2.1 3.045 2.1 1.977 0 2.943-1.421 2.943-2.737 0-1.42-.596-2.244-2.367-3.705l-.926-.762c-2.182-1.791-2.676-3.066-2.676-4.466 0-2.202 1.646-3.705 4.26-3.705.803 0 1.4.083 1.914.206.393.082.557.102.721.102.166 0 .207.042.207.145 0 .103-.082.782-.082 2.182 0 .329-.043.474-.145.474-.123 0-.145-.104-.166-.267-.02-.248-.143-.803-.268-1.029-.123-.227-.678-1.092-2.572-1.092-1.42 0-2.531.886-2.531 2.389 0 1.173.576 1.873 2.512 3.457l.576.453c2.428 1.914 3.004 3.19 3.004 4.837 0 .844-.328 2.408-1.748 3.417-.887.617-1.998.864-3.109.864-.967-.003-1.914-.147-2.758-.558zM221.281 44.648c0 1.976 0 3.602.102 4.466.062.597.186 1.05.803 1.132.289.041.742.082.926.082.125 0 .166.062.166.124 0 .103-.104.165-.33.165-1.131 0-2.428-.063-2.531-.063s-1.4.063-2.018.063c-.227 0-.328-.041-.328-.165 0-.062.041-.124.164-.124.185 0 .432-.041.617-.082.412-.082.516-.535.598-1.132.102-.864.102-2.49.102-4.466v-3.623c0-3.211 0-3.787-.041-4.445-.041-.7-.246-1.05-.699-1.152-.227-.062-.494-.083-.639-.083-.082 0-.164-.041-.164-.123 0-.124.104-.165.33-.165.678 0 1.975.062 2.078.062s1.4-.062 2.018-.062c.227 0 .328.041.328.165 0 .082-.082.123-.164.123-.145 0-.268.021-.514.062-.557.104-.721.453-.762 1.174-.041.658-.041 1.234-.041 4.445v3.622zM235.564 44.648c0 1.976 0 3.602.102 4.466.062.597.186 1.05.803 1.132.289.041.742.082.928.082.123 0 .164.062.164.124 0 .103-.104.165-.33.165-1.131 0-2.428-.063-2.531-.063s-1.398.063-2.018.063c-.225 0-.328-.041-.328-.165 0-.062.041-.124.164-.124.186 0 .432-.041.617-.082.412-.082.516-.535.598-1.132.103-.864.103-2.49.103-4.466v-8.707l-3.047.041c-1.275.021-1.77.165-2.1.659-.227.351-.287.494-.35.638-.062.165-.123.206-.205.206-.062 0-.104-.062-.104-.185 0-.207.412-1.977.453-2.141.041-.124.123-.392.205-.392.145 0 .35.206.906.247.596.061 1.379.103 1.625.103h7.719c.658 0 1.133-.062 1.461-.103.309-.062.494-.104.576-.104.104 0 .104.124.104.248 0 .617-.062 2.037-.062 2.264 0 .186-.061.268-.143.268-.104 0-.145-.062-.166-.35l-.02-.227c-.082-.617-.557-1.092-2.531-1.133l-2.594-.041v8.709zM250.71 45.286c0-1.111-.205-1.564-.473-2.161-.145-.329-2.902-4.857-3.623-5.928-.514-.762-1.029-1.275-1.398-1.523-.309-.205-.701-.329-.885-.329-.104 0-.207-.041-.207-.143 0-.082.082-.145.268-.145.391 0 1.936.062 2.037.062.145 0 .928-.062 1.73-.062.227 0 .268.062.268.145 0 .082-.125.102-.309.185-.166.082-.268.205-.268.369 0 .248.102.494.268.803.328.598 3.416 5.908 3.787 6.505.391-.864 3.004-5.372 3.416-6.052.268-.432.35-.781.35-1.049 0-.289-.082-.516-.33-.576-.184-.062-.309-.103-.309-.207 0-.082.125-.123.33-.123.535 0 1.193.062 1.357.062.125 0 1.605-.062 1.998-.062.142 0 .267.041.267.123 0 .104-.104.165-.267.165-.227 0-.617.083-.947.288-.412.247-.639.494-1.092 1.05-.678.823-3.56 5.66-3.93 6.546-.309.74-.309 1.379-.309 2.058v1.771c0 .329 0 1.193.061 2.058.041.597.227 1.05.844 1.132.289.041.742.082.926.082.125 0 .166.062.166.124 0 .103-.104.165-.33.165-1.131 0-2.428-.063-2.531-.063s-1.4.063-2.018.063c-.227 0-.328-.041-.328-.165 0-.062.041-.124.164-.124.186 0 .432-.041.617-.082.412-.082.598-.535.639-1.132.06-.864.06-1.729.06-2.058v-1.772zM279.484 34.769c4.631 0 8.09 2.923 8.09 7.718 0 4.611-3.252 8.419-8.213 8.419-5.639 0-7.986-4.384-7.986-8.089-.001-3.335 2.429-8.048 8.109-8.048zm.433 15.354c1.852 0 5.68-1.07 5.68-7.06 0-4.94-3.004-7.595-6.256-7.595-3.438 0-6.01 2.264-6.01 6.772 0 4.795 2.881 7.883 6.586 7.883zM294.513 41.025c0-3.211 0-3.787-.041-4.445-.041-.7-.205-1.029-.885-1.174-.164-.041-.514-.062-.699-.062-.082 0-.166-.041-.166-.123 0-.124.104-.165.33-.165.926 0 2.223.062 2.326.062.412 0 4.59 0 5.062-.021.391-.021.721-.021.906-.082l.287-.123c.084 0 .125.082.125.184 0 .145-.103.392-.166.968-.02.205-.061 1.111-.102 1.358-.021.103-.062.226-.166.226-.102 0-.143-.102-.143-.246 0-.165-.062-.515-.185-.782-.123-.268-.598-.638-1.4-.659l-3.17-.061c-.123 0-.184.061-.184.226v5.681c0 .123.02.185.142.185l2.635-.021c.35 0 .639 0 .926-.02.494-.041.762-.103.947-.371.082-.103.145-.205.227-.205s.104.061.104.164c0 .123-.104.474-.166 1.152-.041.412-.082 1.235-.082 1.379 0 .186 0 .392-.145.392-.102 0-.143-.083-.143-.186-.021-.206-.041-.493-.123-.741-.104-.287-.434-.658-1.07-.74-.516-.062-2.76-.062-3.109-.062-.102 0-.142.041-.142.185v1.75c0 1.976 0 3.602.102 4.466.062.597.186 1.05.803 1.132.289.041.742.082.926.082.125 0 .166.062.166.124 0 .103-.104.165-.33.165-1.133 0-2.428-.063-2.531-.063-.103 0-1.4.063-2.018.063-.227 0-.328-.041-.328-.165 0-.062.041-.124.164-.124.185 0 .432-.041.617-.082.412-.082.514-.535.598-1.132.102-.864.102-2.49.102-4.466v-3.623zM317.339 41.025c0-3.211 0-3.787-.041-4.445-.041-.7-.207-1.029-.885-1.174-.166-.041-.516-.062-.701-.062-.082 0-.164-.041-.164-.123 0-.124.104-.165.33-.165.926 0 2.182.062 2.367.062.184 0 1.42-.062 2.037-.062.227 0 .328.041.328.165 0 .082-.082.123-.164.123-.145 0-.268.021-.514.062-.557.082-.721.453-.762 1.174-.041.658-.041 1.234-.041 4.445v2.882c0 2.964.658 4.239 1.543 5.083 1.008.947 1.936 1.133 3.107 1.133 1.256 0 2.49-.598 3.232-1.482.945-1.173 1.193-2.922 1.193-5.042v-2.573c0-3.211 0-3.787-.041-4.445-.041-.7-.207-1.029-.885-1.174-.166-.041-.516-.062-.701-.062-.082 0-.164-.041-.164-.123 0-.124.104-.165.33-.165.926 0 2.059.062 2.182.062.145 0 1.111-.062 1.729-.062.227 0 .33.041.33.165 0 .082-.084.123-.166.123-.143 0-.268 0-.514.062-.557.104-.721.453-.762 1.174-.041.658-.041 1.234-.041 4.445v2.203c0 2.223-.248 4.692-1.895 6.153-1.48 1.317-3.025 1.523-4.238 1.523-.701 0-2.779-.083-4.24-1.462-1.01-.967-1.791-2.408-1.791-5.412v-3.006zM342.572 44.648c0 1.976 0 3.602.103 4.466.062.597.186 1.05.803 1.132.289.041.74.082.926.082.123 0 .166.062.166.124 0 .103-.103.165-.33.165-1.133 0-2.43-.063-2.531-.063-.103 0-1.4.063-2.018.063-.227 0-.33-.041-.33-.165 0-.062.041-.124.166-.124.185 0 .432-.041.617-.082.412-.082.514-.535.596-1.132.104-.864.104-2.49.104-4.466v-8.707l-3.047.041c-1.275.021-1.77.165-2.098.659-.227.351-.289.494-.352.638-.061.165-.123.206-.205.206-.062 0-.104-.062-.104-.185 0-.207.412-1.977.453-2.141.041-.124.123-.392.207-.392.143 0 .35.206.904.247.598.061 1.379.103 1.627.103h7.719c.658 0 1.131-.062 1.461-.103.309-.062.494-.104.576-.104.104 0 .104.124.104.248 0 .617-.062 2.037-.062 2.264 0 .186-.062.268-.145.268-.103 0-.145-.062-.164-.35l-.021-.227c-.082-.617-.555-1.092-2.531-1.133l-2.594-.041v8.709zM357.023 35.571c.246-.679.328-.803.453-.803.123 0 .205.103.451.741.309.781 3.541 9.282 4.797 12.411.74 1.831 1.338 2.161 1.77 2.284.309.104.617.123.824.123.123 0 .205.022.205.124 0 .124-.186.165-.412.165-.309 0-1.811 0-3.23-.041-.393-.022-.617-.022-.617-.145 0-.082.06-.123.143-.144.125-.041.248-.227.125-.555l-1.914-5.064c-.043-.082-.084-.123-.185-.123h-4.426c-.103 0-.164.062-.205.165l-1.236 3.644c-.186.514-.287 1.008-.287 1.379 0 .411.432.596.781.596h.207c.143 0 .205.042.205.124 0 .124-.123.165-.309.165-.494 0-1.379-.063-1.605-.063-.227 0-1.359.063-2.326.063-.268 0-.391-.041-.391-.165 0-.082.082-.124.186-.124.144 0 .432-.019.596-.041.947-.123 1.359-.905 1.73-1.934l4.67-12.782zm2.14 8.234c.102 0 .102-.062.082-.145l-1.955-5.557c-.103-.309-.207-.309-.309 0l-1.813 5.557c-.041.104 0 .145.063.145h3.932zM383.47 44.648c0 1.976 0 3.602.103 4.466.061.597.186 1.05.803 1.132.287.041.74.082.926.082.123 0 .164.062.164.124 0 .103-.102.165-.328.165-1.133 0-2.43-.063-2.533-.063-.102 0-1.398.063-2.016.063-.227 0-.33-.041-.33-.165 0-.062.041-.124.164-.124.186 0 .434-.041.619-.082.41-.082.514-.535.596-1.132.103-.864.103-2.49.103-4.466v-2.162c0-.082-.062-.123-.123-.123h-8.729c-.06 0-.123.021-.123.123v2.162c0 1.976 0 3.602.103 4.466.062.597.186 1.05.803 1.132.287.041.74.082.926.082.123 0 .164.062.164.124 0 .103-.102.165-.328.165-1.133 0-2.43-.063-2.531-.063-.104 0-1.4.063-2.018.063-.227 0-.33-.041-.33-.165 0-.062.041-.124.166-.124.184 0 .432-.041.617-.082.412-.082.514-.535.596-1.132.103-.864.103-2.49.103-4.466v-3.623c0-3.211 0-3.787-.041-4.445-.041-.7-.205-1.029-.885-1.174-.164-.041-.516-.062-.699-.062-.084 0-.166-.041-.166-.123 0-.124.103-.165.33-.165.926 0 2.223.062 2.326.062.102 0 1.398-.062 2.016-.062.227 0 .33.041.33.165 0 .082-.082.123-.164.123-.145 0-.267.021-.516.062-.555.104-.721.453-.762 1.174-.041.658-.041 1.234-.041 4.445v.433c0 .103.062.124.123.124h8.729c.06 0 .123-.021.123-.124v-.433c0-3.211 0-3.787-.041-4.445-.041-.7-.207-1.029-.885-1.174-.166-.041-.516-.062-.701-.062-.082 0-.164-.041-.164-.123 0-.124.103-.165.33-.165.926 0 2.223.062 2.324.062.103 0 1.4-.062 2.018-.062.226 0 .33.041.33.165 0 .082-.082.123-.166.123-.143 0-.268.021-.514.062-.555.104-.721.453-.762 1.174-.041.658-.041 1.234-.041 4.445v3.623zM122.51 77.421c0 3.334 0 6.078.173 7.537.104 1.007.312 1.771 1.354 1.91.486.068 1.25.139 1.563.139.209 0 .278.104.278.208 0 .174-.174.278-.556.278-1.91 0-4.098-.105-4.271-.105-.174 0-2.362.105-3.404.105-.382 0-.556-.07-.556-.278 0-.104.07-.208.278-.208.312 0 .729-.07 1.042-.139.694-.139.868-.903 1.007-1.91.173-1.459.173-4.203.173-7.537v-3.646c0-.139-.104-.208-.208-.208h-14.726c-.104 0-.208.034-.208.208v3.646c0 3.334 0 6.078.173 7.537.104 1.007.313 1.771 1.354 1.91.486.068 1.25.139 1.563.139.209 0 .278.104.278.208 0 .174-.174.278-.556.278-1.91 0-4.098-.105-4.272-.105-.173 0-2.361.105-3.403.105-.382 0-.556-.07-.556-.278 0-.104.069-.208.278-.208.312 0 .729-.07 1.042-.139.695-.139.868-.903 1.007-1.91.173-1.459.173-4.203.173-7.537v-6.111c0-5.418 0-6.391-.069-7.502-.069-1.181-.347-1.736-1.493-1.979-.278-.069-.869-.104-1.181-.104-.139 0-.278-.069-.278-.208 0-.208.174-.278.556-.278 1.563 0 3.751.104 3.924.104.174 0 2.362-.104 3.404-.104.382 0 .556.07.556.278 0 .139-.139.208-.278.208-.243 0-.452.035-.868.104-.938.174-1.216.765-1.285 1.979-.069 1.111-.069 2.084-.069 7.502v.729c0 .174.104.209.208.209h14.726c.104 0 .208-.035.208-.209v-.729c0-5.418 0-6.391-.069-7.502-.069-1.181-.347-1.736-1.493-1.979-.278-.069-.868-.104-1.181-.104-.139 0-.278-.069-.278-.208 0-.208.174-.278.556-.278 1.563 0 3.751.104 3.925.104.173 0 2.361-.104 3.403-.104.382 0 .556.07.556.278 0 .139-.139.208-.278.208-.243 0-.452.035-.868.104-.938.174-1.216.765-1.285 1.979-.069 1.111-.069 2.084-.069 7.502v6.111zM135.579 71.31c0-5.418 0-6.391-.069-7.502-.069-1.181-.347-1.736-1.493-1.979-.278-.069-.868-.104-1.181-.104-.139 0-.278-.069-.278-.208 0-.208.174-.278.556-.278.799 0 1.737 0 2.501.035l1.424.069c.243 0 7.154 0 7.953-.034.66-.035 1.215-.104 1.494-.174.173-.035.312-.174.486-.174.104 0 .139.139.139.312 0 .243-.174.66-.278 1.633-.035.347-.105 1.875-.174 2.291-.035.174-.104.383-.243.383-.208 0-.278-.174-.278-.451 0-.244-.035-.834-.208-1.251-.243-.556-.591-.972-2.466-1.181-.591-.069-4.376-.104-4.758-.104-.139 0-.208.104-.208.347v9.585c0 .243.035.348.208.348.451 0 4.723 0 5.521-.069.834-.069 1.32-.14 1.632-.486.243-.278.382-.452.521-.452.105 0 .174.07.174.278s-.174.799-.278 1.944c-.07.695-.139 1.98-.139 2.223 0 .278 0 .66-.243.66-.173 0-.243-.139-.243-.312 0-.348 0-.694-.139-1.147-.139-.485-.452-1.076-1.806-1.215-.938-.104-4.376-.174-4.966-.174-.174 0-.243.104-.243.243v3.056c0 1.182-.035 5.21 0 5.939.104 2.396.625 2.848 4.028 2.848.903 0 2.431 0 3.334-.383.903-.381 1.32-1.076 1.563-2.5.069-.382.139-.521.313-.521.208 0 .208.277.208.521 0 .277-.278 2.64-.452 3.369-.243.902-.521.902-1.876.902-2.604 0-4.515-.069-5.869-.103-1.355-.07-2.188-.105-2.709-.105-.07 0-.66 0-1.39.034-.694 0-1.493.07-2.014.07-.382 0-.556-.07-.556-.278 0-.104.07-.208.278-.208.312 0 .729-.07 1.042-.139.694-.139.868-.903 1.007-1.91.173-1.459.173-4.203.173-7.537v-6.111zM165.039 62.106c.417-1.146.556-1.355.764-1.355s.347.174.764 1.251c.521 1.319 5.973 15.663 8.092 20.941 1.25 3.091 2.257 3.646 2.987 3.854.521.174 1.041.209 1.389.209.208 0 .347.035.347.208 0 .208-.312.278-.695.278-.52 0-3.056 0-5.452-.07-.66-.034-1.042-.034-1.042-.242 0-.139.104-.209.243-.244.208-.068.417-.381.208-.938l-3.23-8.543c-.069-.139-.139-.208-.312-.208h-7.467c-.174 0-.278.104-.347.277l-2.084 6.147c-.312.868-.486 1.701-.486 2.326 0 .695.729 1.008 1.319 1.008h.348c.243 0 .347.069.347.208 0 .208-.208.278-.521.278-.833 0-2.327-.105-2.709-.105-.382 0-2.292.105-3.924.105-.452 0-.66-.07-.66-.278 0-.139.139-.208.312-.208.243 0 .729-.035 1.007-.07 1.598-.207 2.292-1.527 2.917-3.264l7.885-21.565zm3.612 13.891c.174 0 .174-.104.139-.242l-3.299-9.377c-.174-.521-.347-.521-.521 0l-3.056 9.377c-.069.174 0 .242.104.242h6.633zM190.395 77.491c0 5.105.139 7.328.764 7.953.556.555 1.459.799 4.168.799 1.84 0 3.369-.035 4.202-1.043.451-.555.799-1.424.903-2.083.035-.278.104-.452.312-.452.174 0 .208.14.208.521 0 .382-.243 2.466-.521 3.473-.243.799-.347.937-2.188.937-2.501 0-4.307-.069-5.765-.103-1.459-.07-2.535-.105-3.543-.105-.139 0-.729.034-1.424.034-.694.035-1.458.07-1.979.07-.382 0-.556-.07-.556-.278 0-.104.069-.208.278-.208.312 0 .729-.07 1.042-.139.695-.139.868-.903 1.007-1.91.173-1.459.173-4.203.173-7.537v-6.11c0-5.418 0-6.391-.069-7.502-.069-1.181-.347-1.736-1.493-1.979-.278-.069-.869-.104-1.181-.104-.139 0-.278-.069-.278-.208 0-.208.174-.278.556-.278 1.563 0 3.751.104 3.924.104.174 0 2.709-.104 3.751-.104.382 0 .556.07.556.278 0 .139-.139.208-.278.208-.243 0-.73.035-1.146.104-1.007.174-1.285.765-1.354 1.979-.069 1.111-.069 2.084-.069 7.502v6.181zM214.817 77.421c0 3.334 0 6.078.174 7.537.105 1.007.312 1.771 1.355 1.91.486.068 1.25.139 1.562.139.209 0 .277.104.277.208 0 .174-.174.278-.555.278-1.91 0-4.099-.105-4.271-.105-.174 0-2.362.105-3.404.105-.382 0-.556-.07-.556-.278 0-.104.069-.208.278-.208.312 0 .729-.07 1.041-.139.695-.139.869-.903 1.008-1.91.174-1.459.174-4.203.174-7.537v-14.69l-5.141.069c-2.152.034-2.986.277-3.542 1.111-.382.591-.486.833-.59 1.076-.104.278-.209.348-.347.348-.105 0-.174-.104-.174-.312 0-.348.694-3.334.765-3.612.068-.208.208-.66.347-.66.243 0 .591.348 1.528.418 1.007.104 2.326.173 2.743.173h13.023c1.111 0 1.91-.069 2.466-.173.521-.07.834-.174.973-.174.174 0 .174.208.174.416 0 1.042-.105 3.439-.105 3.82 0 .312-.104.451-.243.451-.174 0-.243-.104-.277-.59l-.035-.383c-.104-1.041-.938-1.84-4.271-1.909l-4.376-.069v14.69zM254.568 77.421c0 3.334 0 6.078.173 7.537.105 1.007.312 1.771 1.355 1.91.486.068 1.25.139 1.562.139.209 0 .278.104.278.208 0 .174-.174.278-.556.278-1.91 0-4.098-.105-4.271-.105-.174 0-2.361.105-3.404.105-.381 0-.555-.07-.555-.278 0-.104.069-.208.277-.208.312 0 .729-.07 1.042-.139.694-.139.868-.903 1.007-1.91.174-1.459.174-4.203.174-7.537v-3.646c0-.139-.104-.208-.208-.208h-14.726c-.104 0-.208.034-.208.208v3.646c0 3.334 0 6.078.173 7.537.105 1.007.313 1.771 1.355 1.91.486.068 1.25.139 1.562.139.209 0 .277.104.277.208 0 .174-.174.278-.555.278-1.91 0-4.099-.105-4.272-.105-.173 0-2.361.105-3.403.105-.382 0-.556-.07-.556-.278 0-.104.069-.208.278-.208.312 0 .729-.07 1.041-.139.695-.139.869-.903 1.008-1.91.174-1.459.174-4.203.174-7.537v-6.111c0-5.418 0-6.391-.07-7.502-.068-1.181-.347-1.736-1.492-1.979-.278-.069-.869-.104-1.182-.104-.139 0-.277-.069-.277-.208 0-.208.174-.278.555-.278 1.563 0 3.752.104 3.925.104.174 0 2.362-.104 3.403-.104.383 0 .557.07.557.278 0 .139-.14.208-.278.208-.243 0-.452.035-.868.104-.938.174-1.216.765-1.285 1.979-.069 1.111-.069 2.084-.069 7.502v.729c0 .174.104.209.208.209h14.726c.104 0 .208-.035.208-.209v-.729c0-5.418 0-6.391-.069-7.502-.069-1.181-.347-1.736-1.493-1.979-.277-.069-.868-.104-1.182-.104-.139 0-.277-.069-.277-.208 0-.208.174-.278.556-.278 1.563 0 3.751.104 3.925.104.174 0 2.361-.104 3.403-.104.382 0 .556.07.556.278 0 .139-.139.208-.277.208-.244 0-.452.035-.869.104-.937.174-1.215.765-1.285 1.979-.068 1.111-.068 2.084-.068 7.502v6.111zM283.315 84.229c-3.368-3.021-4.202-6.98-4.202-10.28 0-2.326.799-6.39 3.89-9.48 2.084-2.084 5.244-3.717 10.593-3.717 1.389 0 3.334.104 5.035.418 1.32.242 2.432.451 3.543.521.381.034.451.173.451.382 0 .277-.104.694-.174 1.945-.069 1.146-.069 3.056-.104 3.576-.035.521-.105.729-.313.729-.243 0-.277-.243-.277-.729 0-1.354-.556-2.777-1.459-3.542-1.216-1.042-3.89-1.979-6.946-1.979-4.618 0-6.771 1.354-7.987 2.535-2.535 2.432-3.126 5.521-3.126 9.064 0 6.633 5.106 12.711 12.537 12.711 2.605 0 4.654-.312 6.043-1.736.73-.765 1.182-2.293 1.285-2.918.07-.382.139-.521.348-.521.174 0 .243.243.243.521 0 .243-.417 3.265-.765 4.445-.208.66-.277.729-.902 1.008-1.389.555-4.029.799-6.252.799-5.21-.002-8.718-1.287-11.461-3.752zM319.321 62.106c.417-1.146.556-1.355.765-1.355.208 0 .347.174.764 1.251.521 1.319 5.973 15.663 8.092 20.941 1.25 3.091 2.258 3.646 2.986 3.854.521.174 1.042.209 1.39.209.208 0 .347.035.347.208 0 .208-.312.278-.694.278-.521 0-3.056 0-5.452-.07-.66-.034-1.042-.034-1.042-.242 0-.139.105-.209.243-.244.209-.068.416-.381.209-.938l-3.23-8.543c-.069-.139-.139-.208-.312-.208h-7.467c-.174 0-.277.104-.348.277l-2.084 6.147c-.312.868-.485 1.701-.485 2.326 0 .695.729 1.008 1.319 1.008h.348c.242 0 .348.069.348.208 0 .208-.209.278-.521.278-.834 0-2.327-.105-2.709-.105-.382 0-2.292.105-3.924.105-.452 0-.66-.07-.66-.278 0-.139.139-.208.312-.208.243 0 .728-.035 1.007-.07 1.598-.207 2.292-1.527 2.917-3.264l7.881-21.565zm3.612 13.891c.174 0 .174-.104.139-.242l-3.299-9.377c-.174-.521-.348-.521-.521 0l-3.057 9.377c-.068.174 0 .242.105.242h6.633zM341.758 71.31c0-5.418 0-6.391-.069-7.502-.069-1.181-.348-1.736-1.493-1.979-.278-.069-.868-.104-1.181-.104-.139 0-.278-.069-.278-.208 0-.208.174-.278.556-.278 1.562 0 3.751.104 3.925.104.382 0 3.02-.104 4.098-.104 2.189 0 4.515.209 6.355 1.528.868.626 2.397 2.327 2.397 4.724 0 2.57-1.077 5.14-4.202 8.021 2.848 3.647 5.209 6.738 7.224 8.891 1.875 1.98 3.368 2.362 4.237 2.501.659.104 1.145.104 1.353.104.174 0 .312.104.312.208 0 .208-.208.278-.833.278h-2.466c-1.945 0-2.813-.174-3.716-.66-1.493-.799-2.709-2.5-4.688-5.105-1.459-1.91-3.091-4.236-3.785-5.14-.139-.139-.244-.208-.452-.208l-4.271-.07c-.174 0-.243.104-.243.278v.833c0 3.334 0 6.078.174 7.537.104 1.007.312 1.771 1.354 1.91.486.068 1.25.139 1.562.139.208 0 .278.104.278.208 0 .174-.174.278-.557.278-1.909 0-4.098-.105-4.272-.105-.034 0-2.223.105-3.264.105-.383 0-.557-.07-.557-.278 0-.104.07-.208.278-.208.312 0 .729-.07 1.042-.139.694-.139.868-.903 1.008-1.91.173-1.459.173-4.203.173-7.537v-6.112zm2.778 3.021c0 .174.069.312.243.416.52.312 2.118.556 3.646.556.833 0 1.806-.104 2.604-.659 1.216-.834 2.119-2.709 2.119-5.349 0-4.341-2.293-6.946-6.008-6.946-1.043 0-1.98.104-2.328.209-.173.069-.277.208-.277.416v11.357zM372.117 71.31c0-5.418 0-6.391-.069-7.502-.069-1.181-.348-1.736-1.493-1.979-.278-.069-.868-.104-1.181-.104-.139 0-.278-.069-.278-.208 0-.208.174-.278.556-.278.799 0 1.736 0 2.5.035l1.425.069c.243 0 7.153 0 7.952-.034.66-.035 1.216-.104 1.494-.174.174-.035.312-.174.486-.174.103 0 .139.139.139.312 0 .243-.174.66-.277 1.633-.035.347-.105 1.875-.174 2.291-.035.174-.104.383-.244.383-.208 0-.277-.174-.277-.451 0-.244-.035-.834-.208-1.251-.243-.556-.591-.972-2.466-1.181-.591-.069-4.376-.104-4.758-.104-.139 0-.209.104-.209.347v9.585c0 .243.035.348.209.348.451 0 4.723 0 5.521-.069.834-.069 1.32-.14 1.633-.486.242-.278.382-.452.521-.452.104 0 .174.07.174.278s-.174.799-.278 1.944c-.069.695-.139 1.98-.139 2.223 0 .278 0 .66-.243.66-.173 0-.243-.139-.243-.312 0-.348 0-.694-.139-1.147-.139-.485-.451-1.076-1.806-1.215-.938-.104-4.376-.174-4.966-.174-.174 0-.244.104-.244.243v3.056c0 1.182-.034 5.21 0 5.939.104 2.396.625 2.848 4.029 2.848.902 0 2.431 0 3.334-.383.902-.381 1.319-1.076 1.562-2.5.069-.382.139-.521.312-.521.209 0 .209.277.209.521 0 .277-.278 2.64-.452 3.369-.243.902-.521.902-1.876.902-2.604 0-4.514-.069-5.869-.103-1.353-.07-2.188-.105-2.708-.105-.069 0-.66 0-1.39.034-.694 0-1.493.07-2.014.07-.383 0-.557-.07-.557-.278 0-.104.07-.208.278-.208.312 0 .729-.07 1.042-.139.694-.139.868-.903 1.008-1.91.173-1.459.173-4.203.173-7.537v-6.111z"/><g fill="#A8AAAC"><path d="M36.711 5.048c-.002-2.786 2.248-5.045 5.033-5.048 2.783-.002 5.047 2.25 5.047 5.036.004 2.783-2.25 5.045-5.031 5.046-2.788.003-5.045-2.248-5.049-5.034zM41.843 78.939c-4.385-.022-1.699-3.496-3.75-4.421-7.26-3.256-10.434-8.344-9.637-15.104.545-4.605 4.156-7.333 6.983-10.553.078-.089.074-.206-.014-.294-3.977-3.929-8.85-6.632-12.625-10.957-2.107-2.411-1.477-6.907 1.746-7.759 4.226-1.121 11.35-1.279 12.779-.03 1.404 1.22-1.398 5.882-3.311 6.816-.08.033-.133.084-.16.162-.389 1.198 2.926 2.766 4.49 3.904.082.062.203.007.229-.096.146-.56.104-1.52.104-1.52l-.109-13.384s-.051-.139-.154-.08c-1.363.722-3.254 1.78-4.668 1.893-6.91.562-13.986.947-20.58-1.455-6.051-2.209-12.268-6.886-13.165-13.88-.006-.047.021-.141.101-.141 2.244-.002 35.06-.043 36.581-.047.191 0 .184.17.184.17-.023 2.561-1.473 5.388-3.768 6.134-1.016.326-3.174.735-5.391.739-8.936.01-10.793-.039-10.982.115-.191.104-.057.325.025.412.721.825 11.012.969 15.203.535 4.562-.471 6.522-5.014 6.932-7.915.016-.138.174-.146.174-.146l2.703-.002 2.697-.003s.154.005.174.143c.416 2.901 2.389 7.439 6.947 7.9 4.191.424 14.483.249 15.207-.574.078-.087.213-.309.017-.412-.184-.156-2.043-.1-10.982-.089-2.213.003-4.373-.402-5.391-.726-2.295-.74-3.748-3.563-3.779-6.124 0 0-.012-.17.182-.17 1.52-.003 34.338-.041 36.582-.044.074 0 .107.094.102.138-.879 6.996-7.082 11.689-13.129 13.912-6.59 2.423-13.662 2.054-20.58 1.509-1.41-.111-3.301-1.166-4.668-1.885-.107-.054-.158.082-.158.084l-.078 13.385s-.037.956.109 1.516c.029.105.146.158.23.097 1.564-1.145 4.875-2.717 4.477-3.915-.021-.077-.078-.13-.154-.165-1.918-.928-4.73-5.583-3.328-6.808 1.42-1.25 8.547-1.11 12.779-.001 3.223.849 3.865 5.339 1.766 7.758-3.762 4.33-8.633 7.049-12.6 10.989-.086.088-.092.203-.012.292 2.832 3.211 6.453 5.933 7.004 10.533.82 6.763-2.342 11.859-9.594 15.128-2.05.931.643 4.455-3.74 4.436zm3.432-21.704c-.5 1.002-.516 6.361.043 7.823.119.304.607.393.887-.021 2.195-3.28 1.578-5.44-.1-7.58-.371-.468-.681-.509-.83-.222zm-6.922.011c-.143-.292-.457-.248-.824.224-1.67 2.144-2.281 4.3-.082 7.577.279.416.77.33.885.021.554-1.46.527-6.828.021-7.822z"/></g><path fill="#C41230" d="M41.822 97.18c26.935-.037 39.394-23.697 39.377-37.535l-.029-27.667h-16.219l.039 27.736c.008 8.982-7.82 23.163-23.184 23.183-15.799.023-23.232-14.524-23.242-23.127l-.037-27.796-16.106.004.057 27.761c.015 14.072 11.865 37.474 39.344 37.441z"/></svg>